<?xml version="1.0" encoding="UTF-8"?>
<svg version="1.1" xmlns="http://www.w3.org/2000/svg" width="968" height="847">
<path d="M0 0 C1.69997668 0.0221259 3.39981818 0.05667041 5.09936523 0.10083008 C6.01064682 0.118741 6.92192841 0.13665192 7.86082458 0.15510559 C9.80202671 0.19640161 11.7431219 0.24300576 13.68408203 0.29443359 C16.59392488 0.36872644 19.50342998 0.41865429 22.41381836 0.46606445 C39.80897017 0.830665 55.65379925 3.39622871 72.09545898 9.18286133 C73.1434668 9.5515332 74.19147461 9.92020508 75.27124023 10.30004883 C87.77628637 15.10331158 98.64588082 22.74932659 108.09545898 32.18286133 C108.8650293 32.94083008 109.63459961 33.69879883 110.42749023 34.47973633 C117.35673341 41.70409208 122.12418919 49.97099612 126.43139648 58.97583008 C128.71322229 62.00219529 130.70302206 62.30189984 134.34545898 63.18286133 C141.14604932 65.11510453 145.76879657 66.54564714 149.66967773 72.64379883 C152.4070989 77.78766832 154.46221489 83.06580309 156.24780273 88.60473633 C159.81002302 99.49160202 163.69634631 110.26546571 167.53295898 121.05786133 C168.64708731 124.19624413 169.76082769 127.3347591 170.87271118 130.47393799 C171.59686376 132.51040624 172.32610487 134.54507283 173.06063843 136.57781982 C174.70184489 141.13608428 176.27364947 145.68011744 177.61547852 150.33618164 C177.85347672 151.12010284 178.09147491 151.90402405 178.33668518 152.71170044 C178.76429358 154.13655455 179.16167025 155.57106099 179.51914978 157.0151062 C180.40454384 159.88457023 181.47206517 161.79918789 184.04782104 163.38446045 C186.6971386 164.50267258 189.33735373 165.36834292 192.09545898 166.18286133 C193.10677383 166.48741241 194.11808868 166.7919635 195.16004944 167.10574341 C198.56550183 168.09121746 201.98294189 169.01778575 205.40795898 169.93286133 C207.31762782 170.45248235 209.22729483 170.97211021 211.13685608 171.49212646 C214.455043 172.39403187 217.77530316 173.28823634 221.09545898 174.18286133 C225.06360049 175.25208782 229.03131143 176.32275598 232.99658203 177.40258789 C235.45489167 178.07149412 237.91462112 178.73521205 240.37597656 179.39282227 C252.75535832 182.76282893 263.70995533 185.86980804 270.50952148 197.62817383 C273.28122564 203.67009007 274.22136754 208.75918011 274.30078125 215.42993164 C274.31068085 216.15227997 274.32058044 216.8746283 274.33078003 217.61886597 C274.36229383 219.99953975 274.38711228 222.38023346 274.41186523 224.76098633 C274.43244351 226.41437286 274.45344021 228.06775424 274.47483826 229.72113037 C274.52996872 234.06774716 274.57941772 238.41441071 274.62768555 242.7611084 C274.67796655 247.19860993 274.73361814 251.63604375 274.78881836 256.07348633 C274.89628951 264.77655403 274.9977589 273.47967848 275.09545898 282.18286133 C276.0300293 282.47805664 276.96459961 282.77325195 277.92749023 283.07739258 C282.71824236 284.74913469 285.28889139 286.69009122 287.71508789 291.18041992 C289.63067085 295.8889835 289.52659255 300.51370643 289.49389648 305.53442383 C289.49676666 306.51148285 289.49963684 307.48854187 289.50259399 308.49520874 C289.5046271 310.5509296 289.49915018 312.60667013 289.48657227 314.66235352 C289.47047341 317.80504555 289.48646469 320.94645835 289.50561523 324.08911133 C289.50363335 326.09171832 289.4997908 328.09432453 289.49389648 330.09692383 C289.49996918 331.03347809 289.50604187 331.97003235 289.51229858 332.93496704 C289.44769651 338.93277806 288.68358586 342.52414917 284.37670898 346.94848633 C283.78889648 347.43833008 283.20108398 347.92817383 282.59545898 348.43286133 C282.00764648 348.93301758 281.41983398 349.43317383 280.81420898 349.94848633 C277.79051476 352.12004855 275.1289583 352.30624078 271.53222656 352.29638672 C270.61149857 352.29631119 269.69077057 352.29623566 268.74214172 352.29615784 C267.75143173 352.29099655 266.76072174 352.28583527 265.73999023 352.28051758 C264.2148304 352.27839516 264.2148304 352.27839516 262.65885925 352.27622986 C259.40852935 352.2706284 256.1582681 352.25807565 252.90795898 352.24536133 C250.70548602 352.24034652 248.50301198 352.23578358 246.30053711 352.23168945 C240.89882094 352.2206585 235.49714487 352.20391895 230.09545898 352.18286133 C229.97681488 351.28411034 229.97681488 351.28411034 229.85577393 350.36720276 C229.48912784 347.61863366 229.1126816 344.87149012 228.73608398 342.12426758 C228.61185059 341.18184204 228.48761719 340.2394165 228.35961914 339.26843262 C225.75041611 320.43376109 216.23456799 304.10195758 201.22045898 292.43286133 C189.96184606 284.33060547 177.1113805 278.77612785 163.09545898 278.18286133 C162.29237305 278.13129883 161.48928711 278.07973633 160.66186523 278.02661133 C140.82556664 277.31922475 120.8307499 284.89533367 106.28295898 298.43286133 C93.69967318 312.2871861 87.84437933 327.69196367 85.04858398 345.95629883 C84.78029785 347.70692627 84.78029785 347.70692627 84.5065918 349.49291992 C84.37091797 350.38060059 84.23524414 351.26828125 84.09545898 352.18286133 C59.07904065 352.20618732 34.06262394 352.22383903 9.04619694 352.2346735 C-2.56848959 352.2398371 -14.18316937 352.246881 -25.79785156 352.25830078 C-35.91727613 352.26824568 -46.03669581 352.27471429 -56.15612513 352.27694982 C-61.51782082 352.27825726 -66.87950254 352.28134519 -72.24119377 352.28859138 C-77.28158648 352.29534855 -82.32195938 352.29747891 -87.36235619 352.29596901 C-89.2179907 352.29624548 -91.07362583 352.29825239 -92.92925644 352.3020668 C-95.45127045 352.30699931 -97.97320844 352.30586127 -100.495224 352.30311584 C-101.23937323 352.30602869 -101.98352246 352.30894153 -102.75022167 352.31194264 C-107.7904198 352.29698254 -107.7904198 352.29698254 -108.90454102 351.18286133 C-108.99879697 349.03542584 -109.02196749 346.88485107 -109.01806641 344.73535156 C-109.01818694 344.05129022 -109.01830748 343.36722887 -109.01843166 342.66243839 C-109.01768273 340.4387447 -109.01005543 338.21513386 -109.00219727 335.99145508 C-109.00072779 334.62235555 -108.99970711 333.25325547 -108.99914551 331.88415527 C-108.99389333 326.79621541 -108.97993224 321.70828757 -108.96704102 316.62036133 C-108.94641602 305.25598633 -108.92579102 293.89161133 -108.90454102 282.18286133 C-58.41454102 281.68786133 -58.41454102 281.68786133 -6.90454102 281.18286133 C-6.24574357 237.41624053 -5.81602033 193.67898524 -5.87719727 149.90942383 C-5.87993219 147.71935784 -5.88264187 145.52929182 -5.88532639 143.33922577 C-5.90943404 124.37102396 -5.94583238 105.40284748 -5.99203724 86.43468702 C-6.0194326 75.17478369 -6.04124108 63.91490214 -6.05204767 52.65496957 C-6.05854828 46.34312083 -6.07399352 40.03137998 -6.09636509 33.71956849 C-6.10803513 29.85287339 -6.11145813 25.98620469 -6.112463 22.11949348 C-6.11461772 20.32709433 -6.12023405 18.53469564 -6.12949371 16.74231911 C-6.14159563 14.308069 -6.14154337 11.87412058 -6.13832092 9.43984985 C-6.14808263 8.36899468 -6.14808263 8.36899468 -6.15804154 7.27650607 C-6.12999366 1.87726574 -5.80677418 0.27194859 0 0 Z M58.09545898 95.18286133 C55.87737609 98.35494361 55.83790571 101.17142224 55.82080078 104.97363281 C55.81126877 106.1384166 55.80173676 107.30320038 55.79191589 108.50328064 C55.7928273 109.7575032 55.79373871 111.01172577 55.79467773 112.30395508 C55.79039261 113.59600357 55.78610748 114.88805206 55.7816925 116.21925354 C55.77423973 118.95203763 55.77451464 121.6846925 55.77978516 124.41748047 C55.78557846 127.91236587 55.76864836 131.40672106 55.74544048 134.90151882 C55.72713019 138.24401955 55.73088905 141.5864045 55.73217773 144.92895508 C55.72296799 146.18115341 55.71375824 147.43335175 55.70426941 148.72349548 C55.7104982 149.89143143 55.71672699 151.05936737 55.72314453 152.26269531 C55.72251511 153.2876561 55.72188568 154.31261688 55.72123718 155.36863708 C56.16761706 158.7255048 56.99229539 160.53221767 59.09545898 163.18286133 C63.20185668 165.61666551 67.47974745 165.47302534 72.12695312 165.45751953 C72.92105087 165.46263046 73.71514862 165.46774139 74.53330994 165.4730072 C77.14915574 165.48686871 79.76473715 165.48594948 82.38061523 165.48364258 C84.2023478 165.48753052 86.02407945 165.49186539 87.84580994 165.49662781 C91.65960635 165.50408195 95.47331017 165.50380393 99.28710938 165.49853516 C104.1754121 165.49273211 109.06333696 165.5096955 113.95157719 165.53287983 C117.7116467 165.54760443 121.47162483 165.54849078 125.23171806 165.5453701 C127.03425281 165.54588364 128.83679262 165.55112755 130.63929939 165.56118202 C133.15757043 165.57350876 135.67510034 165.56677845 138.19335938 165.55517578 C138.93788361 165.56281952 139.68240784 165.57046326 140.44949341 165.57833862 C143.5742103 165.54649225 145.78769933 165.34785281 148.56442261 163.85923767 C150.41041131 162.16217198 150.41041131 162.16217198 150.49414062 158.98852539 C150.06189601 154.86248183 149.07067549 151.18698156 147.71655273 147.29223633 C147.4689772 146.55367401 147.22140167 145.81511169 146.96632385 145.0541687 C146.16595479 142.67659858 145.35020351 140.30467829 144.53295898 137.93286133 C143.97838624 136.30202146 143.42435107 134.67099869 142.87084961 133.03979492 C141.29637289 128.41475868 139.69913478 123.79784 138.09545898 119.18286133 C137.50595459 117.47888184 137.50595459 117.47888184 136.90454102 115.74047852 C135.98195404 113.09106564 135.0452971 110.44760723 134.09545898 107.80786133 C133.84207764 107.09210938 133.58869629 106.37635742 133.32763672 105.63891602 C130.65706362 98.26070334 130.65706362 98.26070334 125.09545898 93.18286133 C123.11521488 93.08122916 121.13152022 93.04445202 119.14868164 93.03759766 C117.9004361 93.0312178 116.65219055 93.02483795 115.36611938 93.01826477 C113.99725381 93.01673599 112.62838772 93.01562209 111.25952148 93.01489258 C109.85948655 93.01168 108.45945195 93.00831593 107.05941772 93.00480652 C104.12220481 92.99881367 101.18502133 92.99696674 98.24780273 92.99755859 C94.48609059 92.99766014 90.72456752 92.98401618 86.96290016 92.96678638 C84.07011043 92.95566053 81.17736628 92.95363958 78.28455734 92.95416832 C76.89789555 92.95298877 75.51123256 92.94856837 74.12459183 92.94083595 C72.18342778 92.93102629 70.24220839 92.93518089 68.30102539 92.93994141 C67.19675201 92.93851639 66.09247864 92.93709137 64.95474243 92.93562317 C62.05611854 93.18626304 60.45602849 93.50490086 58.09545898 95.18286133 Z " fill="#FDFDFD" transform="translate(613.904541015625,282.817138671875)"/>
<path d="M0 0 C1.18092224 0.00007553 2.36184448 0.00015106 3.57855225 0.00022888 C4.84846008 0.00539017 6.11836792 0.01055145 7.42675781 0.01586914 C9.3826181 0.01799156 9.3826181 0.01799156 11.37799072 0.02015686 C14.83691337 0.02396672 18.29579372 0.03378388 21.75469971 0.04486084 C25.28730701 0.05510793 28.81992117 0.05966154 32.35253906 0.06469727 C39.27833763 0.07540757 46.20410819 0.09246555 53.12988281 0.11352539 C56.1878811 8.90801637 55.21489389 17.6216657 54.69238281 26.80102539 C54.65330811 27.50855957 54.6142334 28.21609375 54.57397461 28.94506836 C54.2505235 33.9928847 54.2505235 33.9928847 53.12988281 35.11352539 C35.96988281 35.11352539 18.80988281 35.11352539 1.12988281 35.11352539 C1.45988281 184.60352539 1.78988281 334.09352539 2.12988281 488.11352539 C104.42988281 488.11352539 206.72988281 488.11352539 312.12988281 488.11352539 C312.10247691 419.49759912 312.10247691 419.49759912 311.97729492 350.88183594 C312.00012207 337.60144043 312.00012207 337.60144043 312.02223206 331.38142395 C312.03456407 327.04326053 312.02173198 322.70596007 311.99354553 318.36787415 C311.95837621 312.82732133 311.96656299 307.2883959 312.00561059 301.7478863 C312.01262568 299.71895493 312.00464679 297.68990052 311.9796313 295.66111124 C311.78324496 278.62966158 311.78324496 278.62966158 317.48219299 271.59895325 C319.0036645 270.07557237 320.55105336 268.5773773 322.12988281 267.11352539 C323.3121307 265.70180158 324.47591227 264.27402464 325.60644531 262.82055664 C336.53543507 249.29793308 336.53543507 249.29793308 342.12988281 243.11352539 C342.78988281 243.44352539 343.44988281 243.77352539 344.12988281 244.11352539 C344.22147511 276.95537692 344.29194018 309.79719528 344.33414413 342.63914543 C344.33914685 346.5180568 344.34432415 350.39696791 344.34960938 354.27587891 C344.35065862 355.04808734 344.35170786 355.82029577 344.3527889 356.61590446 C344.37018539 369.11289242 344.4017189 381.60980665 344.438494 394.1067509 C344.47592447 406.93356051 344.49812311 419.76033156 344.50623679 432.58719355 C344.51172021 440.49955203 344.52902751 448.41170207 344.56154868 456.32399637 C344.58522879 462.39523409 344.58769735 468.46629319 344.58231354 474.5375824 C344.58341346 477.02521611 344.59136318 479.51285776 344.60670471 482.00044441 C344.62664188 485.4001162 344.62180748 488.79890028 344.61090088 492.19859314 C344.62255224 493.18013318 344.63420361 494.16167321 344.64620805 495.17295688 C344.56518272 504.53397175 341.39558209 511.54050591 335.06738281 518.38696289 C329.81798976 523.06484944 323.62083029 525.23619637 316.66338158 525.24495316 C315.52040497 525.2487943 314.37742837 525.25263545 313.19981611 525.25659299 C311.93846267 525.25572651 310.67710923 525.25486002 309.37753296 525.25396729 C308.02842264 525.25655041 306.67931309 525.25956342 305.33020461 525.26297069 C301.61463813 525.27105043 297.89909096 525.2728308 294.18351674 525.27356815 C290.17926466 525.27541706 286.17502264 525.28296366 282.17077637 525.28970337 C273.41029991 525.30329501 264.64982803 525.30931295 255.88934278 525.31371403 C250.41956072 525.31647553 244.94978042 525.32071277 239.47999954 525.3252182 C224.3373774 525.33741288 209.19475669 525.3477112 194.05212975 525.35109329 C193.08262268 525.35131286 192.11311561 525.35153242 191.11422954 525.35175864 C190.14239003 525.35197692 189.17055052 525.3521952 188.16926134 525.35242009 C186.19991771 525.35286356 184.23057409 525.35331012 182.26123047 525.35375977 C181.28436612 525.3539812 180.30750178 525.35420263 179.30103548 525.35443076 C163.47722823 525.35837759 147.65346707 525.3758272 131.82967763 525.39911929 C115.5856091 525.42283704 99.34156368 525.43529537 83.09747756 525.43646121 C73.9762996 525.43737783 64.85518166 525.44312673 55.73402023 525.46128082 C47.9657128 525.47668765 40.19748391 525.48179891 32.4291641 525.47354272 C28.46654767 525.46963802 24.50408939 525.47055686 20.54149246 525.48460007 C16.91051908 525.49735011 13.27982251 525.49613194 9.64884944 525.48400936 C7.72002521 525.4811313 5.79119614 525.49297992 3.86240995 525.50543141 C-7.50973294 525.44075063 -14.42105454 523.36563879 -22.69824219 515.46118164 C-28.76842421 508.8997079 -30.02148798 502.89717774 -30.00433826 494.16854668 C-30.00669049 493.35819627 -30.00904272 492.54784586 -30.01146623 491.71293938 C-30.01815681 488.98031498 -30.01769799 486.24773811 -30.01728821 483.5151062 C-30.02058679 481.54300079 -30.02431235 479.57089606 -30.02842969 477.5987922 C-30.03845836 472.16578086 -30.04216787 466.73278058 -30.044819 461.2997613 C-30.04871945 455.4454568 -30.05829794 449.59116108 -30.06703186 443.73686218 C-30.08586854 430.26090941 -30.09605324 416.78495672 -30.10449254 403.30899394 C-30.10869923 396.64953795 -30.11392119 389.99008283 -30.11917707 383.33062759 C-30.13706719 360.53428296 -30.15206317 337.73793806 -30.15949726 314.94158745 C-30.15997202 313.51044635 -30.16044791 312.07930526 -30.16092492 310.64816416 C-30.1611613 309.93844772 -30.16139768 309.22873128 -30.16164121 308.49750828 C-30.16284241 304.90174054 -30.16405786 301.30597281 -30.1652832 297.71020508 C-30.16552335 296.99661456 -30.1657635 296.28302405 -30.16601093 295.54780958 C-30.17390367 272.4120483 -30.19733502 249.2763383 -30.22983915 226.14059941 C-30.264142 201.6799026 -30.28384882 177.21923578 -30.2871415 152.75851452 C-30.28755904 150.07291801 -30.2880386 147.38732151 -30.28856468 144.70172501 C-30.28868787 144.04045616 -30.28881107 143.37918731 -30.28893799 142.69788001 C-30.2911251 132.7176933 -30.30449828 122.73757711 -30.32360268 112.75741196 C-30.34528673 101.40330166 -30.35337135 90.04928503 -30.34363589 78.69515638 C-30.33908464 72.90155417 -30.34102563 67.10814529 -30.36039734 61.31456947 C-30.3779824 56.00954956 -30.37706896 50.70486469 -30.36150005 45.39984144 C-30.35911692 43.48189131 -30.36348395 41.56391827 -30.3753287 39.64600323 C-30.49179035 19.54114647 -30.49179035 19.54114647 -24.01074219 10.52758789 C-16.77432241 3.67990141 -10.06546164 -0.0215074 0 0 Z " fill="#F8FAFA" transform="translate(143.8701171875,173.886474609375)"/>
<path d="M0 0 C5.16328689 0.4172353 7.23229906 1.69869234 10.6875 5.5 C14.93448336 9.9758627 19.37083633 13.85019178 24.1875 17.6953125 C28.13082937 20.92665184 31.85235656 24.36816588 35.58984375 27.8359375 C37.65720836 29.69220978 39.74644587 31.3791142 42 33 C41.6703218 38.41908535 38.48629594 41.31145292 35 45.125 C33.80218022 46.46897892 32.60557004 47.81403685 31.41015625 49.16015625 C30.82379395 49.8164502 30.23743164 50.47274414 29.63330078 51.14892578 C27.50003824 53.56662333 25.46198977 56.05332575 23.4375 58.5625 C20.02863012 62.77198519 16.53600932 66.89760971 13 71 C9.44542508 75.124643 5.93207702 79.27207904 2.5 83.5 C-1.43443256 88.34676475 -5.48554574 93.08279255 -9.56079102 97.81079102 C-12.57245009 101.31235302 -15.5305895 104.84786557 -18.4375 108.4375 C-22.03636198 112.87239526 -25.74735888 117.19564251 -29.5 121.5 C-34.01717749 126.6820603 -38.43609459 131.92481741 -42.765625 137.265625 C-47.56338071 143.13700436 -52.50569805 148.88877302 -57.41601562 154.66601562 C-62.1351961 160.22068034 -66.84075049 165.78059925 -71.4375 171.4375 C-75.39443418 176.30049424 -79.46435942 181.05700203 -83.55615234 185.80615234 C-87.35163367 190.22031766 -91.05277913 194.70333198 -94.72265625 199.22265625 C-97.74419944 202.90759143 -100.83035951 206.53568321 -103.91650391 210.16650391 C-106.79557843 213.55973475 -109.63211492 216.9827672 -112.4375 220.4375 C-116.85262824 225.86000153 -121.40012477 231.16127455 -125.9609375 236.4609375 C-128.82596955 239.79165095 -131.66672022 243.14226641 -134.5 246.5 C-137.84193338 250.46054144 -141.20200108 254.40439771 -144.58227539 258.33227539 C-149.3746614 263.90127214 -154.09076116 269.51864077 -158.72265625 275.22265625 C-161.74057174 278.90316725 -164.822798 282.52709537 -167.90551758 286.15332031 C-170.89367962 289.67472693 -173.83584973 293.22928462 -176.75 296.8125 C-177.47445312 297.69421875 -178.19890625 298.5759375 -178.9453125 299.484375 C-180.26975377 301.10593428 -181.57842 302.74057121 -182.8671875 304.390625 C-185.61046927 307.78010203 -187.51954264 309.76835092 -191.5 311.6875 C-195.79031792 312.0705641 -198.50666216 311.39056805 -202 309 C-204.87542305 306.51437902 -207.59221635 303.94562623 -210 301 C-210 300.34 -210 299.68 -210 299 C-210.8353125 298.6596875 -210.8353125 298.6596875 -211.6875 298.3125 C-214.66159588 296.62449964 -216.72008865 294.53323483 -219 292 C-219 291.34 -219 290.68 -219 290 C-219.86625 289.6596875 -219.86625 289.6596875 -220.75 289.3125 C-223.59530878 287.65273655 -224.93653334 285.57933333 -227 283 C-229.09207039 281.1332295 -231.22574996 279.3324576 -233.390625 277.55078125 C-233.92171875 277.03902344 -234.4528125 276.52726562 -235 276 C-235 275.34 -235 274.68 -235 274 C-235.99 273.67 -236.98 273.34 -238 273 C-239.68359375 271.2578125 -239.68359375 271.2578125 -241.4375 269.125 C-243.27778615 266.89360158 -244.8860263 265.0837276 -247.22265625 263.3671875 C-248.10244141 262.69042969 -248.10244141 262.69042969 -249 262 C-249 261.34 -249 260.68 -249 260 C-249.84111328 259.64808594 -249.84111328 259.64808594 -250.69921875 259.2890625 C-257.67004477 255.38350633 -263.21764692 247.94772434 -268.33203125 241.88671875 C-272.71994681 236.92333885 -277.65029945 232.54870797 -282.62695312 228.19335938 C-287.0038881 224.26248147 -290.49417002 220.48316538 -291.6875 214.625 C-290.68061639 209.31597732 -287.70545399 206.77356896 -284 203 C-282.51411986 201.36022513 -281.03517432 199.71414516 -279.5625 198.0625 C-278.80582031 197.22460938 -278.04914063 196.38671875 -277.26953125 195.5234375 C-275.08163788 193.09077121 -272.91428167 190.64116773 -270.75 188.1875 C-262.04444811 178.38941869 -262.04444811 178.38941869 -257.375 177.5 C-253.69349893 178.04540757 -252.97669326 178.60021136 -250.3203125 181.01171875 C-249.61986816 181.64706543 -248.91942383 182.28241211 -248.19775391 182.93701172 C-244.57360021 186.33893337 -241.01635062 189.79940526 -237.5 193.3125 C-236.77296875 194.02728516 -236.0459375 194.74207031 -235.296875 195.47851562 C-234.61109375 196.16236328 -233.9253125 196.84621094 -233.21875 197.55078125 C-232.59935547 198.16606689 -231.97996094 198.78135254 -231.34179688 199.4152832 C-230 201 -230 201 -230 203 C-229.01 203.33 -228.02 203.66 -227 204 C-227 204.66 -227 205.32 -227 206 C-226.01 206.33 -225.02 206.66 -224 207 C-222.4987793 208.51147461 -222.4987793 208.51147461 -220.88671875 210.46484375 C-216.72448802 215.36435267 -212.31624615 219.97707008 -207.8125 224.5625 C-207.01908203 225.39330078 -206.22566406 226.22410156 -205.40820312 227.08007812 C-204.25674805 228.24893555 -204.25674805 228.24893555 -203.08203125 229.44140625 C-202.39343018 230.14982666 -201.7048291 230.85824707 -200.99536133 231.58813477 C-199.11122433 233.24596846 -199.11122433 233.24596846 -196.84521484 232.80004883 C-190.40097353 230.00595267 -185.7194383 222.32005095 -181.453125 217.0234375 C-178.84579901 213.80994974 -176.18215516 210.65092655 -173.5 207.5 C-170.12684689 203.53124176 -166.78822557 199.53981998 -163.5 195.5 C-158.87578939 189.8225884 -154.1482319 184.23699995 -149.40722656 178.65722656 C-147.1010458 175.94134262 -144.80071332 173.2205156 -142.5 170.5 C-139.72953924 167.22402395 -136.95774155 163.94922865 -134.1796875 160.6796875 C-129.1632698 154.77146221 -124.20546884 148.82386172 -119.3125 142.8125 C-116.2756723 139.1190609 -113.18039045 135.47701514 -110.08374023 131.83374023 C-107.2045468 128.44045891 -104.36795763 125.01732214 -101.5625 121.5625 C-97.60491812 116.69870975 -93.53457554 111.94118769 -89.44165039 107.19165039 C-86.41054711 103.66701081 -83.43014684 100.10960118 -80.5 96.5 C-76.5662143 91.65403211 -72.51552241 86.91901472 -68.44140625 82.19140625 C-65.41041716 78.66682097 -62.43007419 75.10951168 -59.5 71.5 C-55.56556744 66.65323525 -51.51445426 61.91720745 -47.43920898 57.18920898 C-44.42754991 53.68764698 -41.4694105 50.15213443 -38.5625 46.5625 C-34.96362845 42.12759296 -31.25241875 37.8045619 -27.5 33.5 C-18.0055398 22.59759013 -9.01292768 11.30047278 0 0 Z " fill="#FBFCFC" transform="translate(489,293)"/>
<path d="M0 0 C1.32 0.33 2.64 0.66 4 1 C4.02279429 31.28574782 4.04050021 61.57149521 4.05106533 91.85724967 C4.05231609 95.42973547 4.05361041 99.00222126 4.05493164 102.57470703 C4.05519395 103.28594873 4.05545626 103.99719042 4.05572652 104.72998489 C4.06008225 116.25845307 4.06796927 127.78691628 4.0771528 139.31538151 C4.08649203 151.13758059 4.09205618 162.95977706 4.09408849 174.78197968 C4.09533956 181.4252941 4.09848107 188.06859926 4.10573006 194.71191025 C4.11249076 200.95802475 4.11461685 207.20412327 4.11310768 213.45024109 C4.11338399 215.74890861 4.11538881 218.04757663 4.11920547 220.346241 C4.12414347 223.47221085 4.12299786 226.59811946 4.12025452 229.72409058 C4.12316736 230.64431059 4.1260802 231.5645306 4.12908131 232.51263607 C4.11412121 238.77175758 4.11412121 238.77175758 3 241 C-7.02227763 241.0231241 -17.04454897 241.04091543 -27.0668478 241.05181217 C-31.72011186 241.05704085 -36.37335774 241.06413823 -41.02661133 241.07543945 C-45.51344546 241.08626886 -50.00026204 241.09227695 -54.48710823 241.09487724 C-56.20280293 241.0967314 -57.91849662 241.10035182 -59.63418388 241.10573006 C-62.02884913 241.11294121 -64.42344096 241.11399091 -66.81811523 241.11352539 C-67.53452682 241.11712067 -68.25093842 241.12071594 -68.98905945 241.12442017 C-73.88594784 241.11405216 -73.88594784 241.11405216 -75 240 C-75.10088376 238.14065451 -75.13077042 236.27743751 -75.13371277 234.4153595 C-75.13797775 233.20260345 -75.14224274 231.98984741 -75.14663696 230.74034119 C-75.14628739 229.38394162 -75.14582583 228.02754208 -75.14526367 226.67114258 C-75.14825369 225.25217602 -75.15165585 223.83321027 -75.15544128 222.41424561 C-75.16430467 218.54831845 -75.16662046 214.6824134 -75.16725707 210.81647706 C-75.16820485 207.59103399 -75.17188191 204.3655961 -75.17542917 201.14015502 C-75.18358373 193.52792295 -75.18601261 185.91570272 -75.18530273 178.3034668 C-75.18470268 170.4515579 -75.19523777 162.59971787 -75.2110464 154.7478264 C-75.22412905 148.00976069 -75.22948628 141.27171745 -75.22884732 134.53363913 C-75.22859241 130.50814281 -75.23143938 126.48270757 -75.24202538 122.45722389 C-75.25171775 118.66763159 -75.25177773 114.87815856 -75.24450874 111.08856201 C-75.24346409 109.69944268 -75.24581869 108.31031588 -75.2518692 106.92120934 C-75.25960919 105.02067426 -75.2537359 103.12009844 -75.24723816 101.21955872 C-75.24778293 100.15710843 -75.24832769 99.09465815 -75.24888897 98.0000124 C-74.85674195 93.27322224 -73.651438 89.25589116 -70.4609375 85.703125 C-69.9673877 85.14262451 -69.47383789 84.58212402 -68.96533203 84.00463867 C-68.44052246 83.42560791 -67.91571289 82.84657715 -67.375 82.25 C-66.27480838 81.00238856 -65.17585101 79.75368764 -64.078125 78.50390625 C-63.54509766 77.90078613 -63.01207031 77.29766602 -62.46289062 76.67626953 C-60.61847486 74.56282516 -58.86242115 72.38949246 -57.125 70.1875 C-53.57856964 65.70122888 -49.95378243 61.28426917 -46.3125 56.875 C-41.61746787 51.18922105 -36.95044915 45.4824217 -32.3125 39.75 C-27.88386685 34.27941421 -23.38334257 28.87850255 -18.82055664 23.51953125 C-12.31500148 15.86396182 -6.14293727 7.9474251 0 0 Z " fill="#FBFCFC" transform="translate(580,302)"/>
<path d="M0 0 C3.41359414 2.44341475 6.40258764 4.96374813 9.1875 8.125 C9.69152344 8.68703125 10.19554687 9.2490625 10.71484375 9.828125 C15.90564506 16.07231631 18.1875 23.01360844 18.1875 31.125 C19.15051025 31.10928955 20.11352051 31.0935791 21.10571289 31.07739258 C24.7044222 31.02278191 28.30309543 30.98853774 31.90209961 30.96020508 C33.4548968 30.94518895 35.00765209 30.92476972 36.56030273 30.89868164 C38.80202624 30.86197927 41.04318539 30.84520213 43.28515625 30.83203125 C43.97086197 30.81654739 44.65656769 30.80106354 45.36305237 30.78511047 C51.3851249 30.78304345 55.92250167 32.21763298 60.5625 36.125 C63.31495037 39.51263122 63.32329368 42.48507632 63.36450195 46.69458008 C63.38375481 48.40699638 63.38375481 48.40699638 63.40339661 50.15400696 C63.41078354 51.38837997 63.41817047 52.62275299 63.42578125 53.89453125 C63.433853 55.16342697 63.44192474 56.43232269 63.45024109 57.7396698 C63.46408158 60.42715099 63.47509815 63.11450953 63.48266602 65.80200195 C63.49372236 69.2352494 63.52811869 72.66784726 63.56783772 76.10086536 C63.60035373 79.38618926 63.60478678 82.67157098 63.61328125 85.95703125 C63.63078934 87.18533157 63.64829742 88.4136319 63.66633606 89.67915344 C63.63878121 100.52063618 63.63878121 100.52063618 59.1875 105.125 C55.03123493 108.23292037 51.28357078 108.66081451 46.24145508 108.8112793 C45.42286672 108.84451388 44.60427835 108.87774847 43.76088428 108.91199017 C31.65060339 109.33641365 19.52513366 109.22437157 7.40975165 109.15619111 C5.30216621 109.14440796 3.19457762 109.13378836 1.08698463 109.12344933 C-5.53274085 109.09044169 -12.15241403 109.05261239 -18.77207214 109.00808412 C-26.37188613 108.95706665 -33.97153809 108.92298691 -41.57149535 108.90290338 C-47.4862606 108.88622053 -53.40082446 108.85436121 -59.31545419 108.81105727 C-62.8332156 108.78565101 -66.35072757 108.76663879 -69.86858559 108.76368141 C-73.77634577 108.7599395 -77.68347976 108.72475661 -81.59106445 108.68676758 C-82.74588821 108.6902269 -83.90071198 108.69368622 -85.0905304 108.69725037 C-91.29910192 108.60782095 -95.10273364 108.31446003 -99.8125 104.125 C-103.48585155 100.07164657 -103.93268361 96.36653287 -103.97363281 91.02441406 C-103.98324036 90.00945862 -103.9928479 88.99450317 -104.00274658 87.9487915 C-104.00699646 86.85709656 -104.01124634 85.76540161 -104.015625 84.640625 C-104.02132507 83.51106384 -104.02702515 82.38150269 -104.03289795 81.2177124 C-104.04234205 78.82711726 -104.04887959 76.43650913 -104.05273438 74.04589844 C-104.06242615 70.40276138 -104.0934503 66.76019186 -104.125 63.1171875 C-104.13153179 60.79167001 -104.13678157 58.46614849 -104.140625 56.140625 C-104.1529718 55.05702698 -104.1653186 53.97342896 -104.17803955 52.85699463 C-104.15968204 46.57145842 -103.59494663 41.80236473 -100.8125 36.125 C-95.32155719 31.66360897 -90.93820877 30.97875066 -84.08203125 31.02734375 C-82.95640022 31.02946617 -82.95640022 31.02946617 -81.80802917 31.03163147 C-79.4136454 31.0372244 -77.01935547 31.04977556 -74.625 31.0625 C-73.00065239 31.06751592 -71.37630332 31.07207866 -69.75195312 31.07617188 C-65.77209931 31.08719152 -61.79231556 31.10445127 -57.8125 31.125 C-57.77511719 30.55724854 -57.73773438 29.98949707 -57.69921875 29.40454102 C-56.8600784 19.55595386 -52.79534648 10.43110242 -45.5625 3.5625 C-32.04006 -7.24617417 -14.82155095 -9.50539135 0 0 Z M-29.5625 22.375 C-32.91977056 26.47833068 -35.17282433 29.71078608 -34.75 35.125 C-34.00891551 39.20486513 -32.58887924 41.98330771 -29.8125 45.125 C-25.06537376 47.81205259 -21.23665066 48.80301883 -15.8125 48.125 C-12.2566668 46.75850212 -9.49838528 44.85513594 -6.875 42.0625 C-5.19751752 37.42475431 -5.16917346 32.99283745 -5.8125 28.125 C-7.9802768 23.62887035 -10.28969315 21.22093488 -14.8125 19.125 C-20.40316524 17.212404 -25.07074504 18.69992776 -29.5625 22.375 Z " fill="#FCFDFD" transform="translate(320.8125,122.875)"/>
<path d="M0 0 C12.68421655 10.70930643 19.60239207 26.20147239 21.03515625 42.5703125 C21.40803251 56.026282 17.81807699 66.94726928 10.75 78.3125 C10.24855469 79.12589844 9.74710938 79.93929687 9.23046875 80.77734375 C1.96036974 91.24996738 -10.23335581 98.62555348 -22.390625 101.88671875 C-26.73588708 102.53375914 -31.05000564 102.5377643 -35.4375 102.5625 C-36.33275391 102.583125 -37.22800781 102.60375 -38.15039062 102.625 C-52.11343009 102.70565294 -63.91361097 97.15888033 -73.93359375 87.625 C-74.69800781 86.861875 -75.46242188 86.09875 -76.25 85.3125 C-77.22646484 84.3534375 -77.22646484 84.3534375 -78.22265625 83.375 C-87.59322973 73.48955985 -92.28907582 60.30678728 -92.5625 46.8125 C-92.13709871 31.95890502 -88.08701285 20.26177701 -79.25 8.3125 C-78.57517578 7.38824219 -78.57517578 7.38824219 -77.88671875 6.4453125 C-69.39454306 -4.31941725 -56.17798745 -10.42733519 -42.8203125 -12.40625 C-27.08362211 -14.12819788 -12.63125014 -9.39641778 0 0 Z M-54.25 27.3125 C-59.34458986 34.91830412 -61.32246119 43.04339758 -59.76953125 52.12109375 C-57.64195296 60.03192354 -54.07247301 64.09963729 -47.15234375 68.296875 C-40.90888997 71.63013574 -33.1383296 71.13086005 -26.5 69.25 C-19.39677474 65.01538494 -14.58039912 60.84698311 -11.875 52.8515625 C-9.91913117 44.90584537 -11.42691686 38.48374912 -15.25 31.3125 C-18.715588 25.93981327 -23.02134396 22.06235655 -29.25 20.3125 C-38.45732846 19.22052574 -47.5813197 20.2833505 -54.25 27.3125 Z " fill="#F9FBFA" transform="translate(807.25,588.6875)"/>
<path d="M0 0 C0.93164537 -0.0055344 1.86329075 -0.01106879 2.8231678 -0.0167709 C5.95253099 -0.03041049 9.08110119 -0.01539001 12.21044922 -0.00050354 C14.45082946 -0.0042855 16.69120738 -0.00978453 18.93157959 -0.01687622 C25.02242515 -0.03086399 31.11298928 -0.01963759 37.20381927 -0.00316501 C43.57077773 0.01066155 49.93771946 0.00422815 56.3046875 0.0007019 C66.99793676 -0.00200211 77.6910625 0.0114045 88.38427734 0.03465271 C99.38822593 0.05857383 110.39202617 0.06565713 121.39599609 0.05516052 C134.65365314 0.04253681 147.91122412 0.04503953 161.16888428 0.06081963 C166.23420819 0.06658592 171.29948247 0.06649168 176.36480713 0.06175423 C182.32706994 0.0569903 188.28912679 0.06706206 194.2513504 0.08870888 C196.4427445 0.09428486 198.63415836 0.09473465 200.82555389 0.08975601 C203.81069081 0.08382341 206.79519374 0.09626962 209.78027344 0.11352539 C210.6530298 0.10751535 211.52578617 0.1015053 212.4249897 0.09531313 C218.27716252 0.15707539 218.27716252 0.15707539 221.4133606 1.91776943 C224.78027412 5.52785767 224.05435294 10.24003918 224.07763672 14.93870544 C224.09181641 16.23679138 224.10599609 17.53487732 224.12060547 18.87229919 C223.90032133 22.3408409 223.68142466 24.53724251 221.89013672 27.50120544 C217.35404502 30.01935768 212.85943599 29.78422026 207.81860352 29.76190186 C206.44541348 29.76764018 206.44541348 29.76764018 205.04448223 29.77349442 C201.97604828 29.78381564 198.90780176 29.77983393 195.83935547 29.77586365 C193.6398603 29.78021056 191.44036664 29.78539363 189.24087524 29.79135132 C183.26580252 29.80475362 177.29079299 29.80531869 171.31570816 29.80278802 C166.3303549 29.80171932 161.34501448 29.806599 156.35966396 29.81139344 C143.92877432 29.82312729 131.49791287 29.82226106 119.0670222 29.81583663 C108.27158271 29.81066584 97.47623341 29.82192749 86.68081176 29.84093485 C75.59407138 29.86030543 64.50736768 29.86827916 53.42060947 29.8648116 C47.1969901 29.86299616 40.97345336 29.86566102 34.74984741 29.87952614 C28.89921417 29.89207251 23.04876193 29.8901906 17.19813156 29.87711525 C15.04907547 29.8747431 12.90000676 29.8775069 10.75096512 29.88573837 C7.82098814 29.89615325 4.89162447 29.88814744 1.96166992 29.87542725 C1.10807231 29.88280153 0.2544747 29.89017582 -0.62498951 29.89777356 C-5.71661528 29.85115867 -9.33086422 29.28020451 -13.10986328 25.50120544 C-13.41671065 22.07255642 -13.38825198 18.62939916 -13.42236328 15.18870544 C-13.45136719 14.22513123 -13.48037109 13.26155701 -13.51025391 12.26878357 C-13.51863281 11.33872498 -13.52701172 10.40866638 -13.53564453 9.45042419 C-13.55751831 8.17171448 -13.55751831 8.17171448 -13.57983398 6.86717224 C-12.12356478 -0.46410302 -6.10507121 -0.06718857 0 0 Z " fill="#F7F9FA" transform="translate(196.10986328125,279.49879455566406)"/>
<path d="M0 0 C0.72661333 -0.00538554 1.45322666 -0.01077108 2.20185858 -0.01631981 C4.64325263 -0.03065849 7.08410897 -0.02348136 9.52552795 -0.01637268 C11.27315712 -0.02207319 13.02078256 -0.0290362 14.7684021 -0.03717041 C19.52046103 -0.05515257 24.27233582 -0.05392394 29.02441859 -0.04822803 C32.98830425 -0.04514339 36.95215417 -0.05122054 40.91603476 -0.05726677 C50.26571362 -0.07132707 59.61530113 -0.06973828 68.96498108 -0.05836487 C78.61772557 -0.04688243 88.27019226 -0.06095802 97.92290014 -0.08776134 C106.20407857 -0.10989719 114.48516967 -0.11656049 122.7663756 -0.11068493 C127.71514666 -0.10730904 132.66373963 -0.10977223 137.61248589 -0.12693596 C142.26565925 -0.14236932 146.91842021 -0.13848987 151.57157707 -0.11963081 C153.28082193 -0.11593486 154.99009711 -0.11908259 156.69931412 -0.1295166 C159.03008416 -0.1426602 161.35947553 -0.13123968 163.69018555 -0.11352539 C165.64775992 -0.11321146 165.64775992 -0.11321146 167.64488125 -0.1128912 C171.44629927 0.47015216 172.62947731 1.34949029 174.90858459 4.38768005 C175.42616272 6.61424255 175.42616272 6.61424255 175.43983459 9.01268005 C175.44756897 10.31978943 175.44756897 10.31978943 175.45545959 11.65330505 C175.43999084 12.5556488 175.42452209 13.45799255 175.40858459 14.38768005 C175.43178772 15.74119568 175.43178772 15.74119568 175.45545959 17.12205505 C175.45030334 17.9934613 175.44514709 18.86486755 175.43983459 19.76268005 C175.43532288 20.55416443 175.43081116 21.3456488 175.42616272 22.16111755 C174.69155467 25.3213182 173.45565808 26.39286722 170.90858459 28.38768005 C167.66329193 28.8882513 167.66329193 28.8882513 163.73487854 28.8888855 C163.01149434 28.89441989 162.28811013 28.89995429 161.54280519 28.9056564 C159.11815852 28.91927293 156.69453947 28.90428916 154.26991272 28.88938904 C152.53198814 28.89317187 150.79406658 28.89867161 149.05615234 28.90576172 C144.33506892 28.91973834 139.61434904 28.90853111 134.89328575 28.8920505 C129.95571472 28.87821354 125.01816508 28.88465854 120.08058167 28.88818359 C111.78832633 28.89088679 103.49621566 28.87740071 95.20399475 28.85423279 C85.61317771 28.82762237 76.02260257 28.82587555 66.43176126 28.83762115 C57.21066088 28.8483955 47.98964811 28.84221456 38.76855469 28.82806587 C34.84198946 28.82230309 30.91548829 28.82239105 26.98892212 28.82713127 C22.36614191 28.83189903 17.74362702 28.82180773 13.12089729 28.80017662 C11.42294777 28.79460583 9.72497276 28.79414613 8.02702141 28.79912949 C5.71181544 28.80507294 3.39742323 28.79259608 1.08229065 28.77536011 C-0.21408577 28.77293021 -1.51046219 28.77050032 -2.84612274 28.76799679 C-6.27807274 28.36580563 -7.69858088 27.83689819 -10.09141541 25.38768005 C-10.59312439 23.07518005 -10.59312439 23.07518005 -10.58750916 20.38768005 C-10.58815369 19.41830505 -10.58879822 18.44893005 -10.58946228 17.45018005 C-10.56948181 16.43955505 -10.54950134 15.42893005 -10.52891541 14.38768005 C-10.53600525 13.37705505 -10.54309509 12.36643005 -10.55039978 11.32518005 C-10.48691011 3.97991386 -10.48691011 3.97991386 -9.00937557 1.76737881 C-6.0766875 -0.34227193 -3.57981091 0.00666724 0 0 Z " fill="#FBFDFC" transform="translate(193.09141540527344,338.61231994628906)"/>
<path d="M0 0 C7.66752104 -0.06980979 15.33500872 -0.12296748 23.00277615 -0.15543652 C26.56405886 -0.17102777 30.12512258 -0.19214455 33.6862793 -0.22631836 C37.78957099 -0.26544385 41.89263614 -0.27976317 45.99609375 -0.29296875 C47.26206894 -0.30845261 48.52804413 -0.32393646 49.8323822 -0.33988953 C60.85123956 -0.34196921 68.00339647 1.27664698 76.0546875 8.94921875 C81.7625387 14.96653177 84.17895814 21.00117152 84.40161133 29.2421875 C84.43696487 30.457854 84.47231842 31.67352051 84.50874329 32.92602539 C84.61189204 38.48398883 84.70200492 44.04142255 84.75512695 49.60009766 C84.78615544 52.5205828 84.84859726 55.43771547 84.93969727 58.35693359 C85.79649858 86.458847 85.79649858 86.458847 78.84765625 94.53125 C76.9752282 96.47988251 75.04139659 98.21697898 73 100 C71.79920907 101.38385025 70.61950424 102.78674981 69.4765625 104.21875 C68.5291641 105.31520574 67.57883311 106.40913735 66.625 107.5 C65.65846014 108.61424166 64.69231024 109.72882171 63.7265625 110.84375 C63.27571289 111.36324219 62.82486328 111.88273437 62.36035156 112.41796875 C60.20914173 114.91973467 58.10470684 117.45904483 56 120 C55.01 119.67 54.02 119.34 53 119 C53 91.28 53 63.56 53 35 C35.51 35 18.02 35 0 35 C-1.75 5.25 -1.75 5.25 0 0 Z " fill="#FBFDFD" transform="translate(404,174)"/>
<path d="M0 0 C0.96315125 -0.00571014 1.92630249 -0.01142029 2.91864014 -0.01730347 C3.97892929 -0.01842133 5.03921844 -0.01953918 6.13163757 -0.02069092 C7.24555878 -0.02565582 8.35947998 -0.03062073 9.50715637 -0.03573608 C13.20580149 -0.05038532 16.90440371 -0.05716441 20.60307312 -0.06268311 C23.16656496 -0.0684324 25.73005678 -0.07419016 28.29354858 -0.07995605 C32.98621991 -0.0891284 37.67887401 -0.09542543 42.37155277 -0.09845281 C49.27660079 -0.10293191 56.18145069 -0.12047185 63.08643848 -0.1494534 C69.06758954 -0.17368533 75.04864698 -0.18139767 81.02985191 -0.18312836 C83.57399257 -0.18615929 86.1181323 -0.19420255 88.66224098 -0.20731354 C92.21990142 -0.2243385 95.7770781 -0.22250214 99.33476257 -0.21600342 C100.91608727 -0.22982559 100.91608727 -0.22982559 102.52935791 -0.243927 C111.54042108 -0.1922767 111.54042108 -0.1922767 115.42729187 3.14044189 C117.24434086 6.77453987 116.69769905 11.01381737 116.73979187 15.01544189 C116.78329773 16.38249268 116.78329773 16.38249268 116.8276825 17.77716064 C116.8360614 18.65759033 116.84444031 19.53802002 116.85307312 20.44512939 C116.86765564 21.24934326 116.88223816 22.05355713 116.89726257 22.88214111 C116.19502729 26.25651844 115.27266626 27.12761351 112.42729187 29.14044189 C108.69338705 29.75481316 104.98113083 29.67587241 101.20463562 29.64215088 C100.05955536 29.64755386 98.9144751 29.65295685 97.73469543 29.65852356 C93.94446576 29.6710447 90.15499063 29.65449626 86.36479187 29.63653564 C83.73450175 29.63669055 81.1042114 29.63817816 78.47392273 29.64094543 C72.95926582 29.6436468 67.44482665 29.63017857 61.93022156 29.60699463 C55.55673077 29.58038514 49.18360402 29.57863794 42.81007671 29.59038299 C36.67617214 29.60116649 30.54242022 29.59486837 24.40852356 29.58082771 C21.79937626 29.57630546 19.19021824 29.57598314 16.58106995 29.57989311 C12.93713797 29.58279739 9.29380455 29.56633476 5.64994812 29.54449463 C4.02586533 29.5512471 4.02586533 29.5512471 2.36897278 29.55813599 C1.37638458 29.54823135 0.38379639 29.53832672 -0.63887024 29.52812195 C-1.50016037 29.52569205 -2.3614505 29.52326216 -3.24884033 29.52075863 C-6.09708758 29.05462364 -7.48428215 28.10439723 -9.57270813 26.14044189 C-10.07441711 23.82794189 -10.07441711 23.82794189 -10.06880188 21.14044189 C-10.06944641 20.17106689 -10.07009094 19.20169189 -10.070755 18.20294189 C-10.05077454 17.19231689 -10.03079407 16.18169189 -10.01020813 15.14044189 C-10.01729797 14.12981689 -10.02438782 13.11919189 -10.0316925 12.07794189 C-9.96734123 4.63299458 -9.96734123 4.63299458 -8.17060852 2.39044189 C-5.34856025 0.18281972 -3.51878603 0.01246523 0 0 Z " fill="#F7F9F9" transform="translate(192.5727081298828,396.85955810546875)"/>
<path d="M0 0 C6.7059249 3.50509323 10.77478505 8.9923239 13.15234375 16.125 C14.12358124 27.57172757 12.94233486 35.36777751 5.53515625 44.35546875 C3.51485201 46.74508313 1.45273086 49.09387287 -0.625 51.43359375 C-4.8964102 56.26501889 -8.81498301 61.3635197 -12.765625 66.45703125 C-15.59810163 70.08664014 -15.59810163 70.08664014 -18.109375 70.47265625 C-21.91312342 69.98972671 -23.08695927 68.35186216 -25.66015625 65.5625 C-29.87741564 61.13468728 -34.18846027 57.07637155 -38.84765625 53.125 C-40.61687019 51.62050503 -42.38490198 50.11465547 -44.15136719 48.60693359 C-45.37790082 47.56066035 -46.6063241 46.51659696 -47.83691406 45.47509766 C-51.33604754 42.49504483 -54.6429293 39.42025596 -57.84765625 36.125 C-56.52206796 33.22646485 -55.05277281 31.03966342 -52.91015625 28.6875 C-50.15113605 25.60592212 -47.44527852 22.48970574 -44.78125 19.32617188 C-43.82217199 18.18808339 -42.85990302 17.05267665 -41.89453125 15.91992188 C-39.87912586 13.55389116 -37.89813045 11.1909058 -36.0078125 8.72265625 C-26.80822175 -2.99613784 -13.37818629 -6.08675774 0 0 Z " fill="#F9FAFA" transform="translate(561.84765625,241.875)"/>
<path d="M0 0 C-4.09555962 1.53046309 -7.48354097 2.24984573 -11.84961128 2.24888897 C-13.00164453 2.25348777 -14.15367777 2.25808656 -15.34062111 2.26282471 C-16.59664663 2.25768115 -17.85267214 2.25253759 -19.14675903 2.24723816 C-20.50202238 2.24882713 -21.85728493 2.2512916 -23.21254528 2.25455457 C-26.93102166 2.26096142 -30.64938897 2.2549051 -34.36785817 2.24679029 C-38.38014016 2.24020795 -42.39241006 2.24516291 -46.4046936 2.24867249 C-54.26195153 2.25371284 -62.11916736 2.2480751 -69.97642006 2.23882218 C-79.1234338 2.22843754 -88.27043844 2.22850838 -97.41745697 2.22899476 C-113.73485651 2.22949535 -130.05223644 2.22033426 -146.36962891 2.20581055 C-162.21012733 2.19171857 -178.0506085 2.18463998 -193.89111328 2.18530273 C-194.86700988 2.18534269 -195.84290647 2.18538265 -196.84837569 2.18542381 C-197.82257138 2.18546417 -198.79676706 2.18550452 -199.80048382 2.1855461 C-217.82656345 2.1862356 -235.85263574 2.18034842 -253.87871299 2.17139288 C-260.25787845 2.16837437 -266.63704256 2.16731307 -273.01620865 2.16686058 C-280.78640004 2.16617905 -288.55657906 2.16172277 -296.32676519 2.15252777 C-300.29277861 2.14790518 -304.25877619 2.14486599 -308.22479248 2.14612198 C-311.85283901 2.14721525 -315.48085047 2.14370945 -319.10888968 2.13647345 C-321.04821328 2.13379427 -322.98754172 2.1360229 -324.9268657 2.1384055 C-326.64709232 2.13356883 -326.64709232 2.13356883 -328.402071 2.12863445 C-329.88949324 2.12757782 -329.88949324 2.12757782 -331.40696442 2.12649983 C-333.75927248 2.01174376 -335.75075989 1.67057585 -338 1 C-338 0.34 -338 -0.32 -338 -1 C-337.30324889 -0.99962028 -336.60649779 -0.99924056 -335.88863301 -0.99884933 C-294.62046076 -0.97648555 -253.35228921 -0.95932067 -212.08411212 -0.94893467 C-207.13224661 -0.94768392 -202.18038112 -0.9463896 -197.22851562 -0.94506836 C-195.74973518 -0.94467489 -195.74973518 -0.94467489 -194.24108037 -0.94427348 C-178.26499386 -0.93991868 -162.28891093 -0.93203217 -146.31282654 -0.9228472 C-129.92762765 -0.91350539 -113.54243063 -0.90794327 -97.15722919 -0.90591151 C-87.0415385 -0.90453738 -76.92585795 -0.90019272 -66.81017038 -0.89208353 C-59.87943726 -0.88680957 -52.94870939 -0.8851972 -46.01797441 -0.88649862 C-42.01554526 -0.88714098 -38.01313387 -0.88613597 -34.01070786 -0.88079453 C-30.34911896 -0.87594348 -26.68755983 -0.87567265 -23.02596959 -0.87910111 C-21.0684623 -0.87972652 -19.11095538 -0.87540004 -17.15345311 -0.87091869 C-15.99596838 -0.87290974 -14.83848364 -0.87490079 -13.64592361 -0.87695217 C-12.64498082 -0.87657245 -11.64403803 -0.87619273 -10.61276364 -0.8758015 C-8.04216896 -0.90996315 -8.04216896 -0.90996315 -5.78775477 -1.56628424 C-3.30510876 -2.16858312 -2.12133136 -1.28795118 0 0 Z " fill="#B5C0C3" transform="translate(472,697)"/>
<path d="M0 0 C1.32 0.33 2.64 0.66 4 1 C4 79.54 4 158.08 4 239 C3.34 239 2.68 239 2 239 C1.67 162.77 1.34 86.54 1 8 C0.01 8 -0.98 8 -2 8 C-2.99 8 -3.98 8 -5 8 C-3.62845496 5.04590299 -2.01136276 2.55991624 0 0 Z " fill="#8F93A9" transform="translate(580,302)"/>
<path d="M0 0 C0.33 0 0.66 0 1 0 C1 39.93 1 79.86 1 121 C-52.13 121 -105.26 121 -160 121 C-160 120.67 -160 120.34 -160 120 C-151.76491296 118.95446928 -143.58589869 118.83584004 -135.29467773 118.81054688 C-133.83671335 118.80258842 -132.37875127 118.79419924 -130.92079163 118.78541565 C-127.80195735 118.76747666 -124.68312774 118.75242071 -121.56426811 118.73963928 C-116.63583488 118.71930185 -111.7074586 118.69167204 -106.77906799 118.66296387 C-95.44130729 118.59800676 -84.1035051 118.54224133 -72.76569366 118.48697662 C-62.34519177 118.43614142 -51.92471105 118.38335946 -41.50426251 118.32245111 C-36.60054771 118.29406789 -31.69684002 118.27048717 -26.79308403 118.25052643 C-23.75456478 118.23718231 -20.71607899 118.21976997 -17.67758751 118.20121574 C-16.26379487 118.19343318 -14.84999159 118.18737529 -13.43618393 118.18312263 C-11.51464162 118.17711401 -9.59312326 118.16450027 -7.6716156 118.15148926 C-6.59412269 118.14633553 -5.51662977 118.14118179 -4.40648556 118.13587189 C-2.04873126 118.27077197 -2.04873126 118.27077197 -1 117 C-0.89208716 115.48224154 -0.85317288 113.95952031 -0.84178162 112.43797302 C-0.8319928 111.45214233 -0.82220398 110.46631165 -0.81211853 109.4506073 C-0.80636307 108.36016617 -0.8006076 107.26972504 -0.79467773 106.14624023 C-0.78477814 105.00492645 -0.77487854 103.86361267 -0.76467896 102.68771362 C-0.73295372 98.89469516 -0.70826311 95.10166414 -0.68359375 91.30859375 C-0.66303373 88.68685063 -0.64203753 86.0651109 -0.62062073 83.44337463 C-0.57064422 77.23501452 -0.52572386 71.02662841 -0.48259836 64.81821734 C-0.43326827 57.75179224 -0.37833451 50.68541423 -0.32291877 43.61903465 C-0.20902265 29.079401 -0.1022003 14.53972049 0 0 Z " fill="#D7E0DF" transform="translate(458,544)"/>
<path d="M0 0 C18.31502382 -0.04670239 36.63003221 -0.0819802 54.94510269 -0.10362434 C63.44893635 -0.11394081 71.95273304 -0.12800822 80.45654297 -0.15087891 C87.86769534 -0.17080144 95.27882094 -0.18371374 102.68999934 -0.18817699 C106.61485149 -0.1907863 110.53962703 -0.19692699 114.46445465 -0.21146011 C118.15798692 -0.22502608 121.85141093 -0.22922465 125.54496574 -0.22621536 C127.54808303 -0.22702867 129.55118851 -0.23779547 131.55427551 -0.24884033 C132.74616989 -0.246091 133.93806427 -0.24334167 135.16607666 -0.24050903 C136.72021963 -0.24327441 136.72021963 -0.24327441 138.30575943 -0.24609566 C141.03188479 0.0029124 142.67434268 0.59928655 145 2 C129.46907809 3.11211814 113.99101094 3.05998102 98.42852044 2.89946485 C94.91992751 2.86453826 91.41127983 2.83634036 87.90263367 2.80735779 C81.29105804 2.75175777 74.67955092 2.69031001 68.06804866 2.62663645 C60.52728334 2.5543075 52.98646399 2.48868766 45.44563353 2.42356598 C29.96368498 2.28971887 14.48182337 2.14765894 -1 2 C-0.67 1.34 -0.34 0.68 0 0 Z " fill="#D8E2E7" transform="translate(230,229)"/>
<path d="M0 0 C0.66 0 1.32 0 2 0 C2 27.39 2 54.78 2 83 C-21.1 82.67 -44.2 82.34 -68 82 C-68 81.67 -68 81.34 -68 81 C-45.89 80.67 -23.78 80.34 -1 80 C-0.67 53.6 -0.34 27.2 0 0 Z " fill="#949A9E" transform="translate(608,484)"/>
<path d="M0 0 C0.66 0 1.32 0 2 0 C2.33 24.42 2.66 48.84 3 74 C3.66 74 4.32 74 5 74 C4.505 74.99 4.505 74.99 4 76 C2.68 75.67 1.36 75.34 0 75 C0 50.25 0 25.5 0 0 Z " fill="#E2E6E8" transform="translate(886,491)"/>
<path d="M0 0 C1.27472168 -0.00637985 2.54944336 -0.0127597 3.86279297 -0.01933289 C5.26009076 -0.02086133 6.65738906 -0.02197541 8.0546875 -0.02270508 C9.48193394 -0.02591696 10.90918004 -0.02928097 12.33642578 -0.03279114 C15.32910933 -0.03878284 18.321764 -0.04063095 21.31445312 -0.04003906 C25.1548307 -0.03993733 28.99502386 -0.05360114 32.83535767 -0.07081127 C35.78296769 -0.08191185 38.73053283 -0.08395889 41.67816162 -0.08342934 C43.09438718 -0.08461195 44.5106138 -0.08904939 45.92681885 -0.0967617 C47.90431349 -0.10652387 49.88186202 -0.10242912 51.859375 -0.09765625 C52.98585449 -0.09908127 54.11233398 -0.10050629 55.27294922 -0.10197449 C57.9296875 0.14526367 57.9296875 0.14526367 59.9296875 2.14526367 C57.19207124 3.5140718 55.03111155 3.25743199 51.96704102 3.24291992 C50.71556778 3.2396167 49.46409454 3.23631348 48.17469788 3.23291016 C47.50409899 3.2287912 46.8335001 3.22467224 46.14258003 3.22042847 C44.04547739 3.20768396 41.94843786 3.20115404 39.8513031 3.19628906 C34.64200595 3.18290443 29.43276869 3.15871266 24.22351074 3.1348877 C19.82364683 3.11517015 15.42380521 3.09952279 11.02390862 3.08932495 C8.95710638 3.08283748 6.89039564 3.07032831 4.82362366 3.05761719 C3.56899826 3.05431396 2.31437286 3.05101074 1.02172852 3.04760742 C-0.08476547 3.04237061 -1.19125946 3.03713379 -2.33128357 3.03173828 C-5.16345633 3.02260614 -5.16345633 3.02260614 -8.0703125 4.14526367 C-8.0703125 3.15526367 -8.0703125 2.16526367 -8.0703125 1.14526367 C-5.31358829 -0.23309843 -3.08518434 0.01043969 0 0 Z " fill="#E5E8E8" transform="translate(681.0703125,373.854736328125)"/>
<path d="M0 0 C0.90859772 -0.0033284 1.81719543 -0.0066568 2.75332642 -0.01008606 C4.65406798 -0.01510647 6.55481821 -0.01749592 8.45556641 -0.01733398 C11.36505321 -0.01954149 14.27417274 -0.03780546 17.18359375 -0.05664062 C19.03906121 -0.05957139 20.89453046 -0.06155831 22.75 -0.0625 C24.05002457 -0.07327827 24.05002457 -0.07327827 25.37631226 -0.08427429 C26.58875107 -0.07965935 26.58875107 -0.07965935 27.82568359 -0.07495117 C28.53276459 -0.07637619 29.23984558 -0.07780121 29.96835327 -0.07926941 C32.30787586 0.20875798 33.93718636 1.01408626 35.9765625 2.16796875 C17.33395698 3.82565597 -1.35189918 2.81750321 -20.0234375 2.16796875 C-20.0234375 1.83796875 -20.0234375 1.50796875 -20.0234375 1.16796875 C-13.33002275 0.39163594 -6.73641604 0.00877251 0 0 Z " fill="#D8E1E4" transform="translate(339.0234375,228.83203125)"/>
<path d="M0 0 C0.66 0 1.32 0 2 0 C2 2.64 2 5.28 2 8 C26.09 8 50.18 8 75 8 C75 8.33 75 8.66 75 9 C65.36895315 9.15358623 55.73784302 9.30176794 46.10660648 9.4429636 C41.63490799 9.50869122 37.16325453 9.57631211 32.69165039 9.64819336 C28.37993979 9.71743575 24.06818192 9.7817918 19.75634575 9.84269524 C18.1076128 9.86685457 16.4589051 9.89280366 14.81022835 9.92053413 C12.50902385 9.95894047 10.20781341 9.9911014 7.90649414 10.02172852 C6.5941127 10.04171402 5.28173126 10.06169952 3.92958069 10.08229065 C1 10 1 10 0 9 C-0.07179964 7.48071962 -0.08392007 5.95832518 -0.0625 4.4375 C-0.05347656 3.61121094 -0.04445313 2.78492188 -0.03515625 1.93359375 C-0.02355469 1.29550781 -0.01195312 0.65742187 0 0 Z " fill="#CCD7D8" transform="translate(505,533)"/>
<path d="M0 0 C-1 3 -1 3 -2.97583008 4.17089844 C-7.14617852 5.31423446 -11.08119423 5.28578211 -15.38671875 5.265625 C-16.73404839 5.26849518 -16.73404839 5.26849518 -18.1085968 5.27142334 C-20.00054201 5.2727807 -21.89249667 5.26911568 -23.78442383 5.26074219 C-26.68787348 5.24999862 -29.59070967 5.26067193 -32.49414062 5.2734375 C-34.3333347 5.27211656 -36.1725284 5.26955553 -38.01171875 5.265625 C-38.88253586 5.26967346 -39.75335297 5.27372192 -40.65055847 5.27789307 C-46.77005765 5.22994235 -46.77005765 5.22994235 -49 3 C-47.71834961 2.98018066 -46.43669922 2.96036133 -45.11621094 2.93994141 C-40.35998933 2.86385497 -35.60407243 2.77514202 -30.84814453 2.68261719 C-28.78993751 2.64434005 -26.73166388 2.60948496 -24.67333984 2.578125 C-21.71427612 2.53244722 -18.75567043 2.47445698 -15.796875 2.4140625 C-14.87694763 2.40251129 -13.95702026 2.39096008 -13.00921631 2.37905884 C-11.71833099 2.3492543 -11.71833099 2.3492543 -10.40136719 2.31884766 C-9.64635925 2.30552399 -8.89135132 2.29220032 -8.11346436 2.2784729 C-5.10545355 1.88213336 -3.00970548 0 0 0 Z " fill="#CED9DC" transform="translate(896,630)"/>
<path d="M0 0 C-1.89332534 0.81832722 -3.78977733 1.62942268 -5.6875 2.4375 C-6.74324219 2.88996094 -7.79898438 3.34242188 -8.88671875 3.80859375 C-15.05068571 6.16745187 -20.85711656 6.18297369 -27.375 6.1875 C-28.75558594 6.20586914 -28.75558594 6.20586914 -30.1640625 6.22460938 C-35.51403546 6.2360736 -39.94145908 5.76282486 -45 4 C-45 3.34 -45 2.68 -45 2 C-43.86691406 2.15855469 -42.73382812 2.31710937 -41.56640625 2.48046875 C-29.26385846 4.00240556 -17.72146812 3.59160438 -5.90625 -0.22265625 C-3 -1 -3 -1 0 0 Z " fill="#BFCACF" transform="translate(799,685)"/>
<path d="M0 0 C0.66 0 1.32 0 2 0 C2.050652 6.35372519 2.08571322 12.70739844 2.10986328 19.0612793 C2.11992951 21.22340847 2.13358354 23.385524 2.15087891 25.54760742 C2.17509978 28.65286625 2.18647681 31.7579453 2.1953125 34.86328125 C2.20563507 35.83211746 2.21595764 36.80095367 2.22659302 37.79914856 C2.22674408 38.6998558 2.22689514 39.60056305 2.22705078 40.52856445 C2.231492 41.32132278 2.23593323 42.11408112 2.24050903 42.93086243 C2 45 2 45 0 48 C-0.84877477 45.07366334 -1.10038047 42.54804473 -1.02172852 39.50683594 C-1.00163223 38.62622498 -0.98153595 37.74561401 -0.96083069 36.83831787 C-0.93379562 35.89651672 -0.90676056 34.95471558 -0.87890625 33.984375 C-0.85529526 33.01340881 -0.83168427 32.04244263 -0.80735779 31.04205322 C-0.73085945 27.9445483 -0.64677543 24.84730213 -0.5625 21.75 C-0.50926548 19.64845011 -0.45652518 17.54688764 -0.40429688 15.4453125 C-0.27526296 10.29671152 -0.13942602 5.14832961 0 0 Z " fill="#C9D2D2" transform="translate(901,578)"/>
<path d="M0 0 C1.32 0 2.64 0 4 0 C4 22.77 4 45.54 4 69 C3.67 69 3.34 69 3 69 C2.67 46.89 2.34 24.78 2 2 C1.34 2 0.68 2 0 2 C0 1.34 0 0.68 0 0 Z " fill="#EEF6F3" transform="translate(455,207)"/>
<path d="M0 0 C-0.99 0.66 -1.98 1.32 -3 2 C-3.7425 1.505 -4.485 1.01 -5.25 0.5 C-10.74298781 -2.23347734 -17.61763555 -1.84154522 -23.44921875 -0.390625 C-26.58241034 0.74450541 -29.22716213 2.15144142 -32 4 C-32 3.01 -32 2.02 -32 1 C-21.92353944 -7.11032191 -10.67255135 -6.24243569 0 0 Z " fill="#9FA8AD" transform="translate(787,611)"/>
<path d="M0 0 C0.33 0 0.66 0 1 0 C1.07593214 7.77784995 1.12855012 15.55560468 1.16479492 23.33374023 C1.1799012 25.98091199 1.2003873 28.62805864 1.22631836 31.27514648 C1.26261991 35.07542101 1.27970803 38.87536526 1.29296875 42.67578125 C1.30845261 43.86335526 1.32393646 45.05092926 1.33988953 46.27449036 C1.34022942 47.9258625 1.34022942 47.9258625 1.34057617 49.6105957 C1.34723801 50.58100296 1.35389984 51.55141022 1.36076355 52.55122375 C0.94295489 55.38720847 0.21650523 56.25648828 -2 58 C-3.0625 56.1875 -3.0625 56.1875 -4 54 C-3.67 53.01 -3.34 52.02 -3 51 C-2.34 51 -1.68 51 -1 51 C-0.67 34.17 -0.34 17.34 0 0 Z " fill="#F1F7F5" transform="translate(383,167)"/>
<path d="M0 0 C1.58560393 0.25720674 3.16845924 0.53138799 4.75 0.8125 C5.63171875 0.96332031 6.5134375 1.11414063 7.421875 1.26953125 C12.57633933 2.72996281 14.36780161 5.5779067 17 10 C18.6459651 11.68711423 20.31237149 13.3545622 22 15 C23.02813611 16.31175986 24.04084432 17.6369893 25 19 C24.01 19 23.02 19 22 19 C20.92291389 17.64495619 19.8485445 16.28769477 18.78515625 14.921875 C14.10890196 9.88748307 8.01505639 5.79018973 2.125 2.29296875 C1.42375 1.86628906 0.7225 1.43960938 0 1 C0 0.67 0 0.34 0 0 Z " fill="#ECF4F6" transform="translate(804,567)"/>
<path d="M0 0 C0.99 0.33 1.98 0.66 3 1 C0.68776289 2.86470735 -1.61904965 4.72220835 -4.01953125 6.47265625 C-10.32314558 11.14240907 -17.43181233 16.86362466 -21 24 C-21.66 24 -22.32 24 -23 24 C-18.46300286 13.96715582 -9.49934081 5.42004431 0 0 Z " fill="#C9CFD4" transform="translate(733,568)"/>
<path d="M0 0 C0.33 0.99 0.66 1.98 1 3 C-1.64 5.97 -4.28 8.94 -7 12 C-7.99 11.67 -8.98 11.34 -10 11 C-10 8.69 -10 6.38 -10 4 C-7.92446352 3.4465236 -6.15634036 3 -4 3 C-2.63838689 2.03886134 -1.30144802 1.04115841 0 0 Z " fill="#DDE7EC" transform="translate(467,282)"/>
<path d="M0 0 C1.10698242 -0.00580078 1.10698242 -0.00580078 2.23632812 -0.01171875 C6.45458711 -0.00421962 10.4077442 0.29536572 14.5625 1.125 C11.48038543 2.91309701 9.23254025 3.38109123 5.68359375 3.390625 C4.30204102 3.39449219 4.30204102 3.39449219 2.89257812 3.3984375 C1.93802734 3.39070312 0.98347656 3.38296875 0 3.375 C-1.43762695 3.38660156 -1.43762695 3.38660156 -2.90429688 3.3984375 C-3.82404297 3.39585937 -4.74378906 3.39328125 -5.69140625 3.390625 C-6.53002197 3.38836914 -7.3686377 3.38611328 -8.23266602 3.38378906 C-10.4375 3.125 -10.4375 3.125 -13.4375 1.125 C-8.96503415 0.00909763 -4.57956253 -0.02387261 0 0 Z " fill="#B2BABF" transform="translate(771.4375,557.875)"/>
<path d="M0 0 C0.33 0 0.66 0 1 0 C1 8.25 1 16.5 1 25 C-5.27 24.67 -11.54 24.34 -18 24 C-18 23.67 -18 23.34 -18 23 C-16.85660156 22.93941406 -15.71320313 22.87882813 -14.53515625 22.81640625 C-13.04425695 22.73201572 -11.55337225 22.64736698 -10.0625 22.5625 C-9.30775391 22.52318359 -8.55300781 22.48386719 -7.77539062 22.44335938 C-4.08055813 22.55961976 -4.08055813 22.55961976 -1 21 C-0.84313751 19.44051458 -0.74923361 17.87457332 -0.68359375 16.30859375 C-0.64169922 15.36435547 -0.59980469 14.42011719 -0.55664062 13.44726562 C-0.51732422 12.45404297 -0.47800781 11.46082031 -0.4375 10.4375 C-0.39431641 9.44041016 -0.35113281 8.44332031 -0.30664062 7.41601562 C-0.20019702 4.9441585 -0.09818072 2.4721969 0 0 Z " fill="#B3B8C4" transform="translate(458,640)"/>
<path d="M0 0 C3 2 3 2 3.46411133 4.12304688 C3.52248169 5.40791992 3.52248169 5.40791992 3.58203125 6.71875 C3.62650391 7.65074219 3.67097656 8.58273437 3.71679688 9.54296875 C3.74837891 10.51878906 3.77996094 11.49460937 3.8125 12.5 C3.86341797 13.47582031 3.91433594 14.45164062 3.96679688 15.45703125 C4.18630863 20.83692947 4.18630863 20.83692947 4 23 C3.34 23.66 2.68 24.32 2 25 C1.47027597 21.02196343 0.9527099 17.04244026 0.4375 13.0625 C0.28603516 11.92619141 0.13457031 10.78988281 -0.02148438 9.61914062 C-0.16005859 8.53955078 -0.29863281 7.45996094 -0.44140625 6.34765625 C-0.57232666 5.34742432 -0.70324707 4.34719238 -0.83813477 3.31665039 C-0.89155029 2.55215576 -0.94496582 1.78766113 -1 1 C-0.67 0.67 -0.34 0.34 0 0 Z " fill="#D1DADB" transform="translate(842,610)"/>
<path d="M0 0 C0.66 0 1.32 0 2 0 C2 2.64 2 5.28 2 8 C8.27 8 14.54 8 21 8 C21 8.33 21 8.66 21 9 C16.51223172 9.86860031 12.25607233 10.13464852 7.6875 10.125 C6.45386719 10.12757813 5.22023438 10.13015625 3.94921875 10.1328125 C1 10 1 10 0 9 C-0.07179964 7.48071962 -0.08392007 5.95832518 -0.0625 4.4375 C-0.05347656 3.61121094 -0.04445313 2.78492188 -0.03515625 1.93359375 C-0.02355469 1.29550781 -0.01195312 0.65742187 0 0 Z " fill="#B5BCC5" transform="translate(505,533)"/>
<path d="M0 0 C0.66 0.66 1.32 1.32 2 2 C-0.31 6.29 -2.62 10.58 -5 15 C-5.66 15 -6.32 15 -7 15 C-8 12 -8 12 -7.22265625 10.17578125 C-6.1484375 8.45052083 -5.07421875 6.72526042 -4 5 C-3.34 5 -2.68 5 -2 5 C-1.34 3.35 -0.68 1.7 0 0 Z " fill="#DBE5E8" transform="translate(823,652)"/>
<path d="M0 0 C3.08325358 -0.0582253 6.16636505 -0.09367134 9.25 -0.125 C10.55904297 -0.15013672 10.55904297 -0.15013672 11.89453125 -0.17578125 C12.73886719 -0.18222656 13.58320313 -0.18867188 14.453125 -0.1953125 C15.22817383 -0.20578613 16.00322266 -0.21625977 16.80175781 -0.22705078 C19 0 19 0 23 2 C13.595 2.495 13.595 2.495 4 3 C4 2.34 4 1.68 4 1 C2.68 0.67 1.36 0.34 0 0 Z " fill="#D4E0E2" transform="translate(352,229)"/>
<path d="M0 0 C2 2 2 2 2.125 4.1015625 C2.08375 4.93429687 2.0425 5.76703125 2 6.625 C1.88742923 11.46554301 2.62810033 15.36983863 4 20 C3.01 19.67 2.02 19.34 1 19 C-1.65664791 13.68670419 -1.40807093 7.8078932 -1 2 C-0.67 1.34 -0.34 0.68 0 0 Z " fill="#B9BDC1" transform="translate(746,626)"/>
<path d="M0 0 C0.33 0.99 0.66 1.98 1 3 C-1.99719751 7.90450502 -7.01034874 12.17135967 -12 15 C-14.28125 14.6953125 -14.28125 14.6953125 -16 14 C-15.09636719 13.32453125 -14.19273437 12.6490625 -13.26171875 11.953125 C-12.07009546 11.05237039 -10.87870121 10.15131271 -9.6875 9.25 C-8.79514648 8.58484375 -8.79514648 8.58484375 -7.88476562 7.90625 C-4.75095327 5.5252529 -2.16737326 3.34886555 0 0 Z " fill="#C8CFD4" transform="translate(814,668)"/>
<path d="M0 0 C0.33 0 0.66 0 1 0 C1.33 1.65 1.66 3.3 2 5 C2.33 5 2.66 5 3 5 C3.13277344 5.73605469 3.26554688 6.47210937 3.40234375 7.23046875 C3.57894531 8.20628906 3.75554688 9.18210937 3.9375 10.1875 C4.19853516 11.63189453 4.19853516 11.63189453 4.46484375 13.10546875 C4.9523735 15.74239972 5.46671105 18.3719905 6 21 C5.34 21 4.68 21 4 21 C1.49691228 14.66660597 -0.62721313 8.83442589 -1 2 C-0.67 1.34 -0.34 0.68 0 0 Z " fill="#D3DADB" transform="translate(716,638)"/>
<path d="M0 0 C0.33 0.99 0.66 1.98 1 3 C0.30132812 3.75925781 -0.39734375 4.51851563 -1.1171875 5.30078125 C-2.03656422 6.30459053 -2.95582921 7.30850215 -3.875 8.3125 C-4.33519531 8.81201172 -4.79539062 9.31152344 -5.26953125 9.82617188 C-7.38606608 12.14209043 -9.25526383 14.38289574 -11 17 C-11.66 17 -12.32 17 -13 17 C-13 16.34 -13 15.68 -13 15 C-12.34 15 -11.68 15 -11 15 C-10.979375 14.29875 -10.95875 13.5975 -10.9375 12.875 C-9.71935866 9.13936657 -7.73532552 7.8198326 -4.72265625 5.42578125 C-2.78840972 3.82487426 -1.37234428 2.09887949 0 0 Z " fill="#D6DDE1" transform="translate(384,501)"/>
<path d="M0 0 C1.98 0.495 1.98 0.495 4 1 C3.01 1.495 3.01 1.495 2 2 C1.68758545 4.71446979 1.48663408 7.33909361 1.375 10.0625 C1.33632813 10.82111328 1.29765625 11.57972656 1.2578125 12.36132812 C1.16326438 14.24047195 1.08053244 16.12020336 1 18 C0.34 18 -0.32 18 -1 18 C-1.02698422 15.56242587 -1.04683099 13.12515085 -1.0625 10.6875 C-1.07087891 9.99720703 -1.07925781 9.30691406 -1.08789062 8.59570312 C-1.10307906 5.4516975 -1.00193327 3.00579981 0 0 Z " fill="#939493" transform="translate(404,174)"/>
<path d="M0 0 C0.33 0.99 0.66 1.98 1 3 C0.21753906 3.84304688 -0.56492187 4.68609375 -1.37109375 5.5546875 C-2.39334825 6.66134834 -3.41547716 7.76812521 -4.4375 8.875 C-4.95376953 9.43058594 -5.47003906 9.98617187 -6.00195312 10.55859375 C-8.82104736 13.54749315 -8.82104736 13.54749315 -11 17 C-11.66 17 -12.32 17 -13 17 C-11.19526171 12.94614063 -8.54211524 10.13397514 -5.55859375 6.90234375 C-3.7955971 4.98116107 -3.7955971 4.98116107 -3 2 C-2.01 1.34 -1.02 0.68 0 0 Z " fill="#C5CDCE" transform="translate(320,577)"/>
<path d="M0 0 C0.99 0 1.98 0 3 0 C2.67 2.64 2.34 5.28 2 8 C1.34 7.67 0.68 7.34 0 7 C-2.11683841 7.89163577 -2.11683841 7.89163577 -4 9 C-4 4.32165993 -3.1782099 3.2690159 0 0 Z " fill="#DDE1E3" transform="translate(580,302)"/>
<path d="M0 0 C0.66 0 1.32 0 2 0 C1.38390949 4.00458831 -0.55060653 6.83019669 -3 10 C-3.99 10 -4.98 10 -6 10 C-5.01 7.03 -4.02 4.06 -3 1 C-2.01 1.33 -1.02 1.66 0 2 C0 1.34 0 0.68 0 0 Z " fill="#B7C1C5" transform="translate(484,680)"/>
<path d="M0 0 C4.75 0.75 4.75 0.75 7 3 C7.680625 3.4125 8.36125 3.825 9.0625 4.25 C11.67987883 6.61408411 11.69526888 8.57177494 12 12 C11.319375 11.29875 10.63875 10.5975 9.9375 9.875 C7.22379838 7.14570239 4.31945276 4.68645559 1.35546875 2.234375 C0.90816406 1.82703125 0.46085938 1.4196875 0 1 C0 0.67 0 0.34 0 0 Z " fill="#BFC5C7" transform="translate(206,520)"/>
<path d="M0 0 C2.475 0.495 2.475 0.495 5 1 C4.67 3.31 4.34 5.62 4 8 C4.99 8.66 5.98 9.32 7 10 C6.67 11.65 6.34 13.3 6 15 C5.34 15 4.68 15 4 15 C3.32779649 13.06441401 2.66241923 11.12645628 2 9.1875 C1.62875 8.10855469 1.2575 7.02960938 0.875 5.91796875 C0 3 0 3 0 0 Z " fill="#CFD5D6" transform="translate(757,417)"/>
<path d="M0 0 C11.70615034 1.55808656 11.70615034 1.55808656 16 6 C13 7 13 7 10.25 5.6875 C9.1775 5.130625 8.105 4.57375 7 4 C4.68367576 3.22789192 2.36534261 2.61498908 0 2 C0 1.34 0 0.68 0 0 Z " fill="#B9C1C5" transform="translate(771,606)"/>
<path d="M0 0 C5.95948775 0.37246798 10.66916025 2.40106452 16 5 C15.34 5.66 14.68 6.32 14 7 C12.24890978 6.37806106 10.49916969 5.75232002 8.75 5.125 C7.77546875 4.77695312 6.8009375 4.42890625 5.796875 4.0703125 C3.43705673 3.16725355 1.23094884 2.17921582 -1 1 C-0.67 0.67 -0.34 0.34 0 0 Z " fill="#BFC5C8" transform="translate(787,560)"/>
<path d="M0 0 C0.33 0 0.66 0 1 0 C1 8.25 1 16.5 1 25 C0.01 25 -0.98 25 -2 25 C-1.84660156 24.21367188 -1.69320312 23.42734375 -1.53515625 22.6171875 C-0.87005679 18.12169774 -0.64586315 13.66116824 -0.4375 9.125 C-0.39431641 8.24585938 -0.35113281 7.36671875 -0.30664062 6.4609375 C-0.20130661 4.30744203 -0.10022351 2.15373936 0 0 Z " fill="#DCE1E1" transform="translate(609,542)"/>
<path d="M0 0 C2.66666667 1.33333333 5.33333333 2.66666667 8 4 C8 4.66 8 5.32 8 6 C9.423125 6.185625 9.423125 6.185625 10.875 6.375 C14 7 14 7 16 9 C15.01 9.495 15.01 9.495 14 10 C11.7578125 9.109375 11.7578125 9.109375 9.125 7.75 C8.26132812 7.31171875 7.39765625 6.8734375 6.5078125 6.421875 C4.15642093 5.08868725 2.04446974 3.76870406 0 2 C0 1.34 0 0.68 0 0 Z " fill="#B5BBBF" transform="translate(737,678)"/>
<path d="M0 0 C2 2 2 2 3 6 C5.97 6.33 8.94 6.66 12 7 C11.67 7.66 11.34 8.32 11 9 C3.57142857 9.14285714 3.57142857 9.14285714 0 8 C0 5.36 0 2.72 0 0 Z " fill="#E6EAEB" transform="translate(337,148)"/>
<path d="M0 0 C0.33 0.99 0.66 1.98 1 3 C-0.36328125 5.04296875 -0.36328125 5.04296875 -2.3125 7.1875 C-2.94800781 7.90292969 -3.58351563 8.61835937 -4.23828125 9.35546875 C-6 11 -6 11 -8 11 C-7.25 6.25 -7.25 6.25 -5 4 C-4.01 4 -3.02 4 -2 4 C-1.34 2.68 -0.68 1.36 0 0 Z " fill="#CDD2D6" transform="translate(346,546)"/>
<path d="M0 0 C0.66 0.33 1.32 0.66 2 1 C1.360625 1.7425 0.72125 2.485 0.0625 3.25 C-1.78333407 5.7111121 -2.56069174 7.03466926 -3 10 C-4.65 10.33 -6.3 10.66 -8 11 C-6.63629701 8.00779732 -5.05091917 5.70973471 -2.875 3.25 C-2.33617187 2.63640625 -1.79734375 2.0228125 -1.2421875 1.390625 C-0.62730469 0.70226562 -0.62730469 0.70226562 0 0 Z M-2 6 C-1.01 6.495 -1.01 6.495 0 7 C-0.99 7.495 -0.99 7.495 -2 8 C-2 7.34 -2 6.68 -2 6 Z " fill="#DADDDD" transform="translate(514,383)"/>
<path d="M0 0 C-4.93367197 1.97346879 -8.76257341 2.34916177 -14 2 C-14.66 1.34 -15.32 0.68 -16 0 C-14.08655626 -0.39111271 -12.16903447 -0.76231167 -10.25 -1.125 C-9.18265625 -1.33382812 -8.1153125 -1.54265625 -7.015625 -1.7578125 C-3.86311649 -2.01099324 -2.60040934 -1.70415175 0 0 Z " fill="#B6BEC7" transform="translate(472,697)"/>
<path d="M0 0 C-1.95649397 0.83764268 -3.91525556 1.66999059 -5.875 2.5 C-7.51082031 3.19609375 -7.51082031 3.19609375 -9.1796875 3.90625 C-12 5 -12 5 -14 5 C-14 4.01 -14 3.02 -14 2 C-12.23225581 1.46877637 -10.46065917 0.95035927 -8.6875 0.4375 C-7.70136719 0.14746094 -6.71523438 -0.14257812 -5.69921875 -0.44140625 C-3 -1 -3 -1 0 0 Z " fill="#A1A6A9" transform="translate(799,685)"/>
<path d="M0 0 C1.485 0.99 1.485 0.99 3 2 C3 2.66 3 3.32 3 4 C3.99 4.33 4.98 4.66 6 5 C6.33 6.98 6.66 8.96 7 11 C6.01 11.495 6.01 11.495 5 12 C4.15885829 10.56705502 3.32734313 9.12845595 2.5 7.6875 C1.80390625 6.48673828 1.80390625 6.48673828 1.09375 5.26171875 C0 3 0 3 0 0 Z " fill="#C9CED4" transform="translate(831,589)"/>
<path d="M0 0 C0.66 0 1.32 0 2 0 C1.1875 1.9375 1.1875 1.9375 0 4 C-0.99 4.33 -1.98 4.66 -3 5 C-1.125 1.125 -1.125 1.125 0 0 Z M-4 5 C-3.67 5.99 -3.34 6.98 -3 8 C-4.98 9.32 -6.96 10.64 -9 12 C-7.70700306 9.11562221 -6.34058637 7.12780579 -4 5 Z " fill="#E4E5E7" transform="translate(478,307)"/>
<path d="M0 0 C0.33 0.66 0.66 1.32 1 2 C1.66 2.33 2.32 2.66 3 3 C1.02 5.31 -0.96 7.62 -3 10 C-4.1092904 6.67212881 -4.01557588 5.3006216 -3 2 C-2.01 1.34 -1.02 0.68 0 0 Z " fill="#DADFE0" transform="translate(484,259)"/>
<path d="M0 0 C2.25 -0.3125 2.25 -0.3125 5 0 C7.375 2.3125 7.375 2.3125 9 5 C8.67 5.99 8.34 6.98 8 8 C7.34 7.67 6.68 7.34 6 7 C6 6.34 6 5.68 6 5 C5.38125 4.731875 4.7625 4.46375 4.125 4.1875 C2 3 2 3 0 0 Z " fill="#B5B9BB" transform="translate(264,578)"/>
<path d="M0 0 C0.79921875 0.01804687 1.5984375 0.03609375 2.421875 0.0546875 C3.02515625 0.07789063 3.6284375 0.10109375 4.25 0.125 C2.8125 2.25 2.8125 2.25 0.25 4.125 C-2.87820109 3.87732831 -5.76503209 3.06896421 -8.75 2.125 C-5.68753253 0.34090198 -3.52920727 -0.10380021 0 0 Z " fill="#AEB4BE" transform="translate(771.75,575.875)"/>
<path d="M0 0 C0.33 1.32 0.66 2.64 1 4 C-4.14285714 8.42857143 -4.14285714 8.42857143 -8 9 C-6.533292 5.13322435 -4.52798328 3.99014441 -1 2 C-0.67 1.34 -0.34 0.68 0 0 Z " fill="#E7F1F2" transform="translate(900,623)"/>
<path d="M0 0 C5.12779375 2.98127544 7.75269769 6.03353764 11 11 C10.01 11 9.02 11 8 11 C6.72537675 9.56196351 5.45716576 8.11529986 4.2734375 6.6015625 C2.66341486 4.5766874 0.86161142 2.79266285 -1 1 C-0.67 0.67 -0.34 0.34 0 0 Z " fill="#AFB6BA" transform="translate(818,575)"/>
<path d="M0 0 C3.43950364 0.61198376 5.51564485 1.92058847 8.25 4.0625 C8.95640625 4.61035156 9.6628125 5.15820312 10.390625 5.72265625 C11.18726563 6.35494141 11.18726563 6.35494141 12 7 C11.67 7.66 11.34 8.32 11 9 C9.16136495 7.88368586 7.32920277 6.75670373 5.5 5.625 C4.4790625 4.99851562 3.458125 4.37203125 2.40625 3.7265625 C1.6121875 3.15679687 0.818125 2.58703125 0 2 C0 1.34 0 0.68 0 0 Z " fill="#D7D8DA" transform="translate(317,122)"/>
<path d="M0 0 C1.84398144 3.1063995 2.2039901 5.05281472 1.75 8.625 C1.66234375 9.40101563 1.5746875 10.17703125 1.484375 10.9765625 C1 13 1 13 -1 15 C-1.02703381 13.06257659 -1.04641125 11.12504521 -1.0625 9.1875 C-1.07410156 8.10855469 -1.08570313 7.02960937 -1.09765625 5.91796875 C-1 3 -1 3 0 0 Z " fill="#B9C1C5" transform="translate(698,618)"/>
<path d="M0 0 C0.99 0.33 1.98 0.66 3 1 C1.33784732 2.33895632 -0.32963607 3.67130142 -2 5 C-2.70125 5.598125 -3.4025 6.19625 -4.125 6.8125 C-4.74375 7.204375 -5.3625 7.59625 -6 8 C-6.99 7.67 -7.98 7.34 -9 7 C-7.57277341 5.8001722 -6.13284224 4.6154424 -4.6875 3.4375 C-3.88699219 2.77621094 -3.08648438 2.11492188 -2.26171875 1.43359375 C-1.51535156 0.96050781 -0.76898437 0.48742187 0 0 Z " fill="#B1B8BE" transform="translate(733,568)"/>
<path d="M0 0 C0.66 0 1.32 0 2 0 C1 3 1 3 -1.0625 4.1875 C-1.701875 4.455625 -2.34125 4.72375 -3 5 C-1.125 1.125 -1.125 1.125 0 0 Z M-4 5 C-3.67 5.99 -3.34 6.98 -3 8 C-5.475 9.485 -5.475 9.485 -8 11 C-6.84826645 8.53199953 -5.95216435 6.95216435 -4 5 Z " fill="#D9D9D9" transform="translate(408,390)"/>
<path d="M0 0 C1.32 0 2.64 0 4 0 C2.5140084 4.59306496 0.14985318 7.43569245 -3 11 C-3.33 10.01 -3.66 9.02 -4 8 C-2.625 5.5 -2.625 5.5 -1 3 C-0.67 2.01 -0.34 1.02 0 0 Z " fill="#D0D5D7" transform="translate(333,558)"/>
<path d="M0 0 C3.63 0 7.26 0 11 0 C10.34 1.32 9.68 2.64 9 4 C8.67 3.34 8.34 2.68 8 2 C5.03 2 2.06 2 -1 2 C-0.67 1.34 -0.34 0.68 0 0 Z " fill="#CDD2D7" transform="translate(295,117)"/>
<path d="M0 0 C3.88375805 0.57537156 6.17781201 2.33036271 9 5 C9.8125 7.25 9.8125 7.25 10 9 C6.63820226 7.55922954 4.40843732 5.75249979 2 3 C2 2.34 2 1.68 2 1 C1.34 0.67 0.68 0.34 0 0 Z " fill="#A1A5A6" transform="translate(252,566)"/>
<path d="M0 0 C3.28754511 0.57889381 4.93672495 1.54828411 7.25 3.9375 C7.77078125 4.46214844 8.2915625 4.98679687 8.828125 5.52734375 C10 7 10 7 10 9 C8.68 8.34 7.36 7.68 6 7 C6 6.34 6 5.68 6 5 C5.38125 4.731875 4.7625 4.46375 4.125 4.1875 C2 3 2 3 0 0 Z " fill="#A0A4A4" transform="translate(234,548)"/>
<path d="M0 0 C0.66 0.33 1.32 0.66 2 1 C-0.31 3.97 -2.62 6.94 -5 10 C-5.33 9.01 -5.66 8.02 -6 7 C-2.73239437 1.36619718 -2.73239437 1.36619718 0 0 Z " fill="#CACED1" transform="translate(404,477)"/>
<path d="M0 0 C0 3.56229451 -0.76109009 4.41109679 -2.875 7.1875 C-3.40867187 7.90292969 -3.94234375 8.61835938 -4.4921875 9.35546875 C-4.98976563 9.89816406 -5.48734375 10.44085938 -6 11 C-6.66 11 -7.32 11 -8 11 C-7.33333333 9.66666667 -6.66666667 8.33333333 -6 7 C-5.71125 6.319375 -5.4225 5.63875 -5.125 4.9375 C-3.77576461 2.61381682 -2.21705385 1.4780359 0 0 Z " fill="#CDD1D4" transform="translate(432,444)"/>
<path d="M0 0 C1.45903258 0.30921884 2.91720722 0.62248799 4.375 0.9375 C5.18710937 1.11152344 5.99921875 1.28554687 6.8359375 1.46484375 C9 2 9 2 11 3 C11 3.66 11 4.32 11 5 C7.7 4.34 4.4 3.68 1 3 C0.67 2.01 0.34 1.02 0 0 Z " fill="#C6CBCD" transform="translate(462,174)"/>
<path d="M0 0 C0.33 0.99 0.66 1.98 1 3 C0.01 4.485 0.01 4.485 -1 6 C-2.32 6 -3.64 6 -5 6 C-5.99 6.495 -5.99 6.495 -7 7 C-3.86206897 0 -3.86206897 0 0 0 Z " fill="#CFD2D4" transform="translate(278,126)"/>
<path d="M0 0 C0.66 0 1.32 0 2 0 C2.99 3.3 3.98 6.6 5 10 C4.01 10 3.02 10 2 10 C0 3.375 0 3.375 0 0 Z " fill="#D9DCDB" transform="translate(767,368)"/>
<path d="M0 0 C0 0.33 0 0.66 0 1 C-3.96 1.99 -7.92 2.98 -12 4 C-12 3.01 -12 2.02 -12 1 C-7.53763531 -0.80619523 -4.68965706 -1.11658501 0 0 Z " fill="#A6ABB6" transform="translate(758,561)"/>
<path d="M0 0 C1.28132812 0.10183594 2.56265625 0.20367187 3.8828125 0.30859375 C4.87023437 0.39238281 5.85765625 0.47617187 6.875 0.5625 C6.875 0.8925 6.875 1.2225 6.875 1.5625 C5.97136719 1.62308594 5.06773437 1.68367188 4.13671875 1.74609375 C2.95722656 1.82988281 1.77773438 1.91367187 0.5625 2 C-0.60925781 2.08121094 -1.78101563 2.16242188 -2.98828125 2.24609375 C-6.15090958 2.4492371 -6.15090958 2.4492371 -9.125 3.5625 C-9.125 2.5725 -9.125 1.5825 -9.125 0.5625 C-6.07230154 -0.96384923 -3.36654311 -0.27544444 0 0 Z " fill="#D6D7D8" transform="translate(682.125,374.4375)"/>
<path d="M0 0 C0.99 0.33 1.98 0.66 3 1 C3.1953125 7.0546875 3.1953125 7.0546875 3 9 C2.34 9.66 1.68 10.32 1 11 C0.67 7.37 0.34 3.74 0 0 Z " fill="#BEC6CC" transform="translate(843,624)"/>
<path d="M0 0 C0.66 0.33 1.32 0.66 2 1 C1.01 3.31 0.02 5.62 -1 8 C-1.99 7.67 -2.98 7.34 -4 7 C-3.39816251 4.97954558 -2.72693904 2.97888961 -2 1 C-1.34 0.67 -0.68 0.34 0 0 Z " fill="#B9C0C6" transform="translate(705,599)"/>
<path d="M0 0 C4.85077588 1.11940982 7.777893 2.1334716 11 6 C7.61121488 6 6.60242783 5.35638802 3.8125 3.5625 C2.73935547 2.88380859 2.73935547 2.88380859 1.64453125 2.19140625 C1.10183594 1.79824219 0.55914063 1.40507813 0 1 C0 0.67 0 0.34 0 0 Z " fill="#B4BCBE" transform="translate(804,567)"/>
<path d="M0 0 C1.62418745 -0.08090971 3.24951745 -0.13914995 4.875 -0.1875 C5.77992188 -0.22230469 6.68484375 -0.25710937 7.6171875 -0.29296875 C8.79667969 -0.14794922 8.79667969 -0.14794922 10 0 C10.66 0.99 11.32 1.98 12 3 C9.36 3 6.72 3 4 3 C4 2.34 4 1.68 4 1 C2.68 0.67 1.36 0.34 0 0 Z " fill="#818A8D" transform="translate(352,229)"/>
<path d="M0 0 C1.32 0 2.64 0 4 0 C4 3.3 4 6.6 4 10 C1.8480563 6.77208445 1.79913557 5.71599191 2 2 C1.34 2 0.68 2 0 2 C0 1.34 0 0.68 0 0 Z " fill="#E0E6E6" transform="translate(455,207)"/>
<path d="M0 0 C4.8 3.44615385 4.8 3.44615385 5.8125 6.25 C5.874375 6.8275 5.93625 7.405 6 8 C5.01 8.495 5.01 8.495 4 9 C0 3.375 0 3.375 0 0 Z " fill="#B4C0C0" transform="translate(788,613)"/>
<path d="M0 0 C0.66 1.32 1.32 2.64 2 4 C1.01 5.32 0.02 6.64 -1 8 C-1.99 7.67 -2.98 7.34 -4 7 C-1.125 1.125 -1.125 1.125 0 0 Z " fill="#E1EAEB" transform="translate(306,591)"/>
<path d="M0 0 C0.33 0.99 0.66 1.98 1 3 C-0.21484375 4.82421875 -0.21484375 4.82421875 -1.9375 6.6875 C-2.50339844 7.31011719 -3.06929688 7.93273437 -3.65234375 8.57421875 C-4.09707031 9.04472656 -4.54179687 9.51523437 -5 10 C-5.66 9.34 -6.32 8.68 -7 8 C-4.69 5.36 -2.38 2.72 0 0 Z " fill="#ACB1B5" transform="translate(384,501)"/>
<path d="M0 0 C2.475 0.495 2.475 0.495 5 1 C5 3.64 5 6.28 5 9 C4.34 9 3.68 9 3 9 C2.01 6.03 1.02 3.06 0 0 Z " fill="#C2C7C7" transform="translate(744,382)"/>
<path d="M0 0 C0.66 0 1.32 0 2 0 C0.95125002 2.62187494 0.35068687 3.79371361 -2.125 5.25 C-2.74375 5.4975 -3.3625 5.745 -4 6 C-2.84826645 3.53199953 -1.95216435 1.95216435 0 0 Z " fill="#E5E5E8" transform="translate(519,259)"/>
<path d="M0 0 C2.475 0.495 2.475 0.495 5 1 C4.625 3.4375 4.625 3.4375 4 6 C3.01 6.495 3.01 6.495 2 7 C0.5393715 4.35261084 0 3.10551666 0 0 Z " fill="#E7EEF2" transform="translate(379,218)"/>
<path d="M0 0 C0.33 0 0.66 0 1 0 C1 2.31 1 4.62 1 7 C1.66 7 2.32 7 3 7 C3 7.66 3 8.32 3 9 C3.66 9 4.32 9 5 9 C4.67 9.66 4.34 10.32 4 11 C2.68 10.67 1.36 10.34 0 10 C0 6.7 0 3.4 0 0 Z " fill="#C7CACF" transform="translate(886,556)"/>
<path d="M0 0 C1.98 0.66 3.96 1.32 6 2 C6 3.65 6 5.3 6 7 C3.95880212 5.38405168 1.95927063 3.7143618 0 2 C0 1.34 0 0.68 0 0 Z " fill="#A3A6A8" transform="translate(226,539)"/>
<path d="M0 0 C0 2 0 4 0 6 C-1.98 6.33 -3.96 6.66 -6 7 C-4.02 4.69 -2.04 2.38 0 0 Z " fill="#CED3D4" transform="translate(486,417)"/>
<path d="M0 0 C0.66 0.33 1.32 0.66 2 1 C-0.52956528 4.0916909 -3.22454612 4.90931332 -7 6 C-7.33 5.34 -7.66 4.68 -8 4 C-6.71349294 3.30289269 -5.42059335 2.61757124 -4.125 1.9375 C-3.40570313 1.55464844 -2.68640625 1.17179687 -1.9453125 0.77734375 C-1.30335938 0.52082031 -0.66140625 0.26429687 0 0 Z " fill="#D4D9DC" transform="translate(288,119)"/>
<path d="M0 0 C0.99 0.33 1.98 0.66 3 1 C0.75 3.0625 0.75 3.0625 -2 5 C-4.3125 4.75 -4.3125 4.75 -6 4 C-3.1875 1.9375 -3.1875 1.9375 0 0 Z " fill="#ABB0B6" transform="translate(804,678)"/>
<path d="M0 0 C0.66 0.66 1.32 1.32 2 2 C0.625 4.5 0.625 4.5 -1 7 C-1.66 7 -2.32 7 -3 7 C-3.33 6.01 -3.66 5.02 -4 4 C-2.66666667 2.66666667 -1.33333333 1.33333333 0 0 Z " fill="#BDC2C8" transform="translate(819,660)"/>
<path d="M0 0 C0.99 0 1.98 0 3 0 C3.66 2.64 4.32 5.28 5 8 C4.01 7.67 3.02 7.34 2 7 C0.8125 3.4375 0.8125 3.4375 0 0 Z " fill="#999DA6" transform="translate(745,638)"/>
<path d="M0 0 C3.3 0.33 6.6 0.66 10 1 C9.34 1.66 8.68 2.32 8 3 C4.4375 2.75 4.4375 2.75 1 2 C0.67 1.34 0.34 0.68 0 0 Z " fill="#E1E2E1" transform="translate(818,454)"/>
<path d="M0 0 C0.99 0 1.98 0 3 0 C1.25 4.875 1.25 4.875 -1 6 C-1.66 5.34 -2.32 4.68 -3 4 C-1.6875 2 -1.6875 2 0 0 Z " fill="#D9DDDE" transform="translate(520,337)"/>
<path d="M0 0 C0.99 0.33 1.98 0.66 3 1 C3 2.98 3 4.96 3 7 C2.34 7 1.68 7 1 7 C0.34 5.02 -0.32 3.04 -1 1 C-0.67 0.67 -0.34 0.34 0 0 Z " fill="#BDC5C6" transform="translate(838,601)"/>
<path d="M0 0 C0.33 0.99 0.66 1.98 1 3 C-1.97 5.475 -1.97 5.475 -5 8 C-3.375 2.25 -3.375 2.25 0 0 Z " fill="#CFD3D9" transform="translate(320,577)"/>
<path d="M0 0 C-0.33 0.66 -0.66 1.32 -1 2 C-3.64 1.67 -6.28 1.34 -9 1 C-9 0.67 -9 0.34 -9 0 C-5.62182575 -0.84454356 -3.32534757 -1.10844919 0 0 Z " fill="#858B94" transform="translate(767,559)"/>
<path d="M0 0 C2.97 0.33 5.94 0.66 9 1 C5.23312136 2.88343932 3.97041037 3.22057835 0 3 C0 2.01 0 1.02 0 0 Z " fill="#8A9094" transform="translate(777,558)"/>
<path d="M0 0 C0.33 0.99 0.66 1.98 1 3 C-0.40445835 5.2636564 -2.1967913 7.0208685 -4 9 C-4.33 8.01 -4.66 7.02 -5 6 C-3.59554165 3.7363436 -1.8032087 1.9791315 0 0 Z " fill="#ABB1B6" transform="translate(367,521)"/>
<path d="M0 0 C0.66 1.32 1.32 2.64 2 4 C1.01 4.99 0.02 5.98 -1 7 C-1.66 5.68 -2.32 4.36 -3 3 C-2.01 2.01 -1.02 1.02 0 0 Z " fill="#D6DEDE" transform="translate(561,287)"/>
<path d="M0 0 C0.33 0.99 0.66 1.98 1 3 C-0.40445835 5.2636564 -2.1967913 7.0208685 -4 9 C-4.33 8.01 -4.66 7.02 -5 6 C-3.59554165 3.7363436 -1.8032087 1.9791315 0 0 Z " fill="#B7C1C9" transform="translate(467,282)"/>
</svg>
